<?xml version="1.0" encoding="UTF-8"?>
<!DOCTYPE svg PUBLIC "-//W3C//DTD SVG 1.1//EN" "http://www.w3.org/Graphics/SVG/1.1/DTD/svg11.dtd">
<!-- Creator: CorelDRAW 2020 (64-Bit) -->
<svg xmlns="http://www.w3.org/2000/svg" xml:space="preserve" width="198.188mm" height="248.687mm" version="1.1" style="shape-rendering:geometricPrecision; text-rendering:geometricPrecision; image-rendering:optimizeQuality; fill-rule:evenodd; clip-rule:evenodd"
viewBox="0 0 9979.83 12522.77"
 xmlns:xlink="http://www.w3.org/1999/xlink"
 xmlns:xodm="http://www.corel.com/coreldraw/odm/2003">
 <defs>
  <style type="text/css">
   <![CDATA[
    .fil7 {fill:#96A043}
    .fil10 {fill:#9D4531}
    .fil4 {fill:#A4AE44}
    .fil8 {fill:#AD654E}
    .fil6 {fill:#D9675F}
    .fil2 {fill:#EB9E4B}
    .fil0 {fill:#ECB04C}
    .fil3 {fill:#ED9E4C}
    .fil9 {fill:#EFBE44}
    .fil5 {fill:#F4CF71}
    .fil11 {fill:#F4D976}
    .fil1 {fill:white}
   ]]>
  </style>
 </defs>
 <g id="Layer_x0020_1">
  <metadata id="CorelCorpID_0Corel-Layer"/>
  <g id="_1646238107200">
   <path class="fil0" d="M2052.31 3410.74c137.25,-43.02 362.65,147.7 -95.36,282.88 -132.29,39.05 -226.26,-62.02 -154.84,-172.48 29.56,-45.73 191.96,-92.14 250.2,-110.39zm1569 -116.51c88.13,-101.6 593.07,-288.37 491.54,-4.42 -17.58,49.19 -544.53,342.36 -491.54,4.42zm1883.55 -662.25c-81.36,-147.38 -8.42,-182.13 118.31,-228.65 88.4,-32.45 244.2,-113.28 321.23,-49.36 191.74,159.11 -292.17,334.97 -439.54,278.02zm-2191.02 -500.32c158.93,-42.48 234.95,161.82 47.86,231.16 -109.3,40.51 -273.04,106.4 -381.14,134.47 -158.39,41.14 -247.73,-153.89 -50.62,-229.62 113.63,-43.65 269.18,-105.36 383.9,-136.02zm1136.81 -301.5c203.21,-72.12 279.35,157.95 47.9,230.96 -86.09,27.16 -179.91,27.31 -189.48,-82.19 -9.99,-114.28 56.69,-118.65 141.57,-148.78zm-1580.07 -225.28c-193.9,-164 77.73,-285.04 188.75,-256.54 159.14,40.85 75.93,292.08 -188.75,256.54zm1903.6 -1016.81c143.26,-36.96 218.42,161.64 70.91,220.57 -66.63,26.62 -267.34,104.59 -328.01,116.19 -161.53,30.9 -198.83,-155.03 -77.26,-219.72 52.35,-27.86 271.62,-100.86 334.36,-117.04zm422.07 2780.83c118.07,-127.16 747.99,-428.92 1185.49,-917.43 175.62,-196.09 323.02,-371.43 407.12,-640.75 138.57,-443.75 -52.25,-636.5 -107.54,-847.5 -79.86,54.21 -337.98,156.9 -408.23,66.44 -125.09,-161.09 164.8,-212.22 241.96,-253.4 -39.17,-90.43 -229.58,-244.46 -317.35,-310.36 -76.67,-57.57 -313.96,-214.49 -362.06,-265.68 -1032.3,-62.14 -1934.61,173.42 -2800.3,716.95 -1154.12,724.62 -1996.99,2089.13 -1664.87,3506.86 33.06,141.14 50.92,226.63 223.08,223.08 120.8,-2.49 2639.72,-926.95 2956.09,-1043.42 156.21,-57.51 527.64,-167.49 646.59,-234.79z"/>
   <path class="fil0" d="M5249.07 8668.1c178.34,-57.12 316.55,171.24 -56.96,268.25 -103.79,26.96 -190.55,-41.03 -161.88,-144.43 22.53,-81.24 145.36,-100.27 218.84,-123.81zm1815.11 -193.67c202.4,-72.63 253.69,137.17 109.57,205.32 -100,47.29 -267.44,99.19 -377.19,137.68 -207.46,72.76 -247.11,-139.74 -117.15,-206.98 93.4,-48.33 278.73,-97.97 384.77,-136.02zm-2935.44 -807.4c66.63,182.54 -40.67,186.03 -180.55,237.85 -88.59,32.82 -253.2,123.65 -324.81,37.91 -121.43,-145.38 90.2,-203 181.93,-234.73 127.01,-43.93 202.16,-108.19 323.43,-41.03zm1389.1 -134.62c144.53,-42.79 322.65,165.27 -96.61,282.59 -131.94,36.92 -217.53,-74.03 -153.46,-171.61 31.83,-48.49 191.48,-93.63 250.08,-110.98zm1436.8 -711.36c178.49,-58.39 245.7,155.45 87.33,216.75 -116.44,45.07 -260.95,98.71 -378.7,136.37 -186.73,59.72 -257.05,-156.94 -93.25,-217.98 125.04,-46.59 257.67,-93.6 384.63,-135.13zm-2152.84 2609.66c183.11,-19.04 402.81,-16.38 678.24,-49.64 564.87,-68.22 1297.1,-212.2 1800.63,-453.25 692.76,-331.65 1272.51,-817.65 1402.01,-1623.45 -56.47,17.97 -183.56,74.44 -232.52,72.52 -86.81,-3.41 -134.81,-89.51 -102.07,-168.4 42.24,-101.76 318.68,-117.12 398.94,-189.99 -46.14,-23.67 -18.98,-151.42 -19.3,-207.61 -1.06,-188.49 -25.07,-441.09 -65.66,-621.02l37.28 -34.23c-152.68,-12.77 -160.39,-93.51 -89.85,-212.29l-144.15 -504.12c-361.7,109.37 -751.36,271.21 -1112.45,399.32l-3333.13 1196.25c-368.52,135.97 -741.09,266.35 -1111.01,398.69 -208.46,74.58 -395.7,133.34 -270.8,394.17 229.61,479.48 614.16,907.91 1073.84,1181.43 245.13,145.85 817.22,424.43 1089.99,421.6z"/>
   <path class="fil1" d="M4801.8 9430.71c-272.77,2.82 -844.86,-275.75 -1089.99,-421.6 -459.68,-273.52 -844.23,-701.95 -1073.84,-1181.43 -124.9,-260.84 62.34,-319.59 270.8,-394.17 369.92,-132.34 742.49,-262.72 1111.01,-398.69l3333.13 -1196.25c361.08,-128.11 750.74,-289.95 1112.45,-399.32 82.43,-45.2 933.87,-362.75 1048.87,-334.98 294.31,71.05 271.11,897.29 245.46,1138.72 -68.57,645.48 -427.41,1436.48 -885.26,1880.34 -312.29,302.75 -327.07,359.74 -740.58,645.36 -566.67,391.39 -1345.08,680.73 -2028.94,742.58 -512.63,46.36 -798.13,13.67 -1295.14,-60.85l-7.98 -19.68zm-2389.91 -2340.5c-12.01,-143.88 28.88,-230.7 110.14,-344.04 114.46,-35.91 569.19,-126.98 687.37,-128.63 319.91,-4.46 406.33,98.03 678.87,140.63 119.65,18.79 162.89,2.65 272.44,-33.21 90.31,-84.75 178.78,-241.31 242.32,-354.81 104.39,-186.49 252.33,-150.71 440.93,-153.9 308.31,-5.21 610.38,-186.05 846.87,-370.44l69.97 -47.46c39.16,69.11 26.38,99.7 86.85,186.12 34.69,49.58 76.57,111.81 106.44,161.77 -76.67,49.86 -3214.64,1182.22 -3331.17,1197.57 -106.18,-63.03 -180.5,-130.06 -211.04,-253.6zm3660.42 -994.1c-85.62,-116.7 -178.26,-227.59 -162.81,-387.09 263.69,-150.76 613.6,-174.47 886.28,-51.2 89.84,40.62 228.19,58.98 280.28,86.33 -83.24,48.29 -929.27,351.17 -1003.75,351.96zm212.45 -1215.24c-81.89,64.63 -885.6,329.13 -1059.47,393.26l-2170.7 777.75c-177.59,60.95 -359.9,127.09 -535.93,192.34 -158.22,58.64 -429.14,191.72 -553.04,17.23 -59.53,-83.84 -72.96,-195.42 -46.08,-296.55 38.79,-145.93 65.06,-135.39 192.89,-180.4l1620.1 -582.4c354.75,-130.92 765.97,-292.24 1146.35,-325.12 484.99,-41.92 921.29,-57.03 1405.89,3.89zm1328.93 676.86l-196.28 65.86c51.83,-88.05 199.02,-166.01 268.28,-286.9 67.53,-117.85 133.57,-228.45 241.66,-308.61 100.65,-74.65 290.88,-107.29 413.53,-138.2 155.48,-39.18 293.37,-105.88 429.06,-139.92 57.14,-45.89 143.15,-80.12 208.04,-128.22 100.99,-74.86 105.83,-89.01 186.77,-167.4 214.22,-6 308.06,268.73 230.83,457.49l-1781.91 645.89zm-3904.38 -811.69c-58.31,52.18 -1144.64,420.59 -1371.14,501.25 -307.82,109.61 -481.27,243 -575.68,72.18 -108.73,-111.39 -140.66,-319.06 -41.83,-444.04 788.56,401.31 929.11,-305.11 1560.54,-251.89 209.08,17.62 403.63,46.34 616.66,62.77l-188.56 59.73zm903.83 1353.22c-155.09,49.3 -233.22,58.73 -317.01,211.78 -250.83,589.59 -416.06,279.92 -851.9,209.5 -217.08,-35.08 -397.85,-9.37 -605.38,43.61 -150.16,38.33 -446.61,132.88 -518.47,-55.79l2.14 -69.54c129.37,-73.22 601.59,-222.99 768.1,-280.14 783.54,-268.94 1559.87,-572.31 2352.41,-844.53 255.88,-87.89 517.4,-182.78 771.15,-276.97 739.85,-274.64 388.69,-113.23 901.68,-165.6 137.72,-14.06 281.86,-51.84 387.71,-143.21 166.89,-144.06 25.15,-160.84 279.02,-254.14 244.01,-89.68 545.95,-213.71 791.08,-281.5l486.99 -180.74 103.59 75.69c17.37,215.84 -248.57,452.33 -355.36,507.01 -557.29,285.38 -876.14,110.07 -1156.73,566.44 -103.73,168.72 -211.58,334.22 -437.68,433.79 -158.15,69.64 -464.15,-115.88 -664.33,-134.65 -201.58,-18.9 -549.66,53.5 -728.54,144.85 -171.77,87.72 -332.53,243.7 -503.55,347.92 -334.12,203.6 -343.34,138.61 -704.91,146.21zm3203.42 -1765.2c54.83,-125.43 405.17,-521.71 507.34,-597.96 446.82,-333.41 284.91,-176.69 529.97,-321.66 69.01,-40.83 62.39,-82.86 103.99,-147.41 194.42,70.12 323.84,180.57 282.29,411.77 -21.74,120.98 -35.71,164.94 -147.35,205.29 -197.79,71.48 -1191.78,439.76 -1276.23,449.96zm-1287.26 404.25c-426.15,-19.66 -907.78,-32.07 -1333.01,-17.02 -484.79,17.16 -710.41,76.39 -1153.5,240.67 -255,94.55 -1915.47,715.89 -2039.36,708.12l-53.65 -120.53c22.91,-64.9 1239.64,-476.22 1388.21,-528.81 465.78,-164.87 4162.27,-1519.24 4282.76,-1526.2 52.08,-53.48 866.97,-329.6 1007.21,-377.56 87.57,-29.95 193.7,-64.48 198.48,70.58 6.19,174.58 -251.87,109.99 -598.71,452.98 -223.87,221.38 -463.71,467.06 -642.53,743.19 -251.96,389.08 -357.86,368.43 -1055.9,354.57zm1103.39 -1396.69l-365.86 129.5 -2930.37 1060.5c7.84,-45.5 44.56,-89.33 80.82,-120.05 48.25,-105.57 274.83,-340.91 377.91,-402.07 259.8,-154.17 309.19,-140.39 604.88,-162.02 527.51,-38.6 730.75,-82.06 1152.88,-389.85 172.71,-125.92 302.24,18.54 680.33,-65.96 217.52,-48.61 283.11,-192.72 406.01,-356.78 106.5,-142.16 311.18,-207.8 469.61,-294.63 82.01,-44.94 183.51,-83.92 260.42,-130.7 80.55,-49 138.79,-130.36 205.47,-170.31 115.43,99.75 194.3,189.13 178.53,359.32 -32.5,172.24 -62.51,168.3 -205.18,221.4 -99.72,37.12 -198.55,71.78 -299.21,108.71 -179.24,65.75 -436.78,171.7 -616.22,212.93zm226.11 -646.21c-289.81,160.6 -340.85,258.87 -540.34,497.64 -175.05,209.51 -609.54,-2.09 -847.12,147.84 -229.49,144.84 -427.18,276.07 -699.15,331.2 -717.12,145.37 -876.63,-138.23 -1436.5,623.91 -211.29,287.62 -455.54,245.23 -788.59,206.8 -422.16,-48.7 -454.56,-71.06 -826.26,132.15 -183.31,100.22 -577.58,350.95 -761.16,170.7l5899.11 -2110.25zm-2662.57 673.49c-118.94,67.3 -490.38,177.28 -646.59,234.79 -316.37,116.47 -2835.29,1040.93 -2956.09,1043.42 -172.16,3.55 -190.02,-81.95 -223.08,-223.08 -332.11,-1417.72 510.75,-2782.24 1664.87,-3506.86 865.69,-543.53 1768,-779.1 2800.3,-716.95 864.45,62.06 1791.42,452.27 2334.14,1135.86 718.56,905.07 288.3,855.92 -429.63,1124.27 -279.12,104.33 -567.33,209.18 -849.46,305.01 -336.04,114.13 -1474.11,552.33 -1694.46,603.55zm3705.22 -875.77l-221.39 -229.99c99.43,-189.02 76.68,-316.46 -7.54,-502.35 -945.03,-1839.46 -3364.2,-2147.81 -5122.33,-1340.76 -815.83,374.5 -1484.26,921.63 -1957.83,1682.8 -403.46,648.49 -598.19,1445.91 -462.73,2205.38 18.22,102.16 51.42,274.82 97.93,364.19 77.98,149.85 183.19,136.29 258.75,205.55 -55.79,354.27 -32.24,481.47 249.49,709.16 25.04,164.5 66.78,124.72 8.91,274.02 -41.64,107.43 -57.25,223.39 -36.1,337.45 43.51,234.64 196.05,318.46 403.22,378.96 72.63,121.95 33.24,102.82 150.19,203.08 -25.44,160.18 -103.73,211.4 -40.31,414.16 49.92,159.63 114.17,192.43 220.63,294.25 -49.48,256.68 -148.46,195.91 141.5,694.14 339.88,584 913.86,1029.67 1538.46,1285.53 2789.08,1142.47 6225.6,-1195.91 5825.55,-3907.26 -81.91,-555.14 -176.23,-469.79 -331.82,-632.95 29.93,-334.72 -14.94,-419.55 -266.32,-626.5 8.98,-80.17 32.79,-111.28 16.41,-202.65 -23.47,-130.92 -46.92,-48.03 16.55,-173.44 126.23,-249.43 86.06,-569.08 -151.84,-737.75 -156.75,-111.13 -168.05,-37.08 -301.95,-214.43 11.94,-97.38 41.92,-136.56 36.34,-249.07 -5.15,-103.82 -51.18,-147.37 -63.78,-231.52z"/>
   <path class="fil1" d="M6670.12 11777.74c49.93,-25.45 292.24,-26.5 342.77,5.02 85.62,53.39 82.12,197.18 -18.04,234.14 -53.15,19.61 -283.99,19.46 -334.35,-5.91 -89.95,-45.33 -94.02,-180.42 9.61,-233.24zm-3221.9 7.57c99.19,-55.43 1448.69,-22.99 1679.94,-22.99l1279.32 2.39c137.25,22.33 154.95,204.66 35.81,251.48l-2961.18 8.75c-117.21,-21.52 -156.64,-171.02 -33.88,-239.62zm-1922.5 -10821.74c-134.13,-80.19 -404.86,-454.79 -538.41,-263.72 -130.17,186.24 301.23,366.84 360.67,498.54 -8.02,17.95 -514.42,738.88 -739.35,1216.86 -740.17,1572.86 -832.07,3176.64 -127.34,4797.17 557.9,1282.9 1694.51,2354.48 2993.98,2867.62 381.45,150.63 752.88,253.03 1155.86,318.79 121.95,19.9 337.71,29.88 437.75,59.13l7.01 819.61c-246.36,0 -1263.44,-14.02 -1422.03,9.08 -424.92,61.9 -622.52,382.45 -675.4,779.06 -194.21,14.56 -787.17,-88.2 -676.9,289.85 48.61,166.65 193.58,161.77 339.92,161.47l5044.43 -0.02c138.31,0 349.98,34.38 454.51,-64.97 102.47,-97.39 91.84,-262.36 -30.69,-345.5 -95.71,-64.94 -353.83,-31.63 -476.76,-40.82 -153.93,-1090.56 -1092.8,-729.98 -2156.27,-790.15l-6.65 -800.26c152.28,-25.25 397.99,-15.27 568.92,-32.05 186.83,-18.34 362.58,-45.1 546.74,-79.05 885.79,-163.26 1875.36,-610.46 2595.67,-1134.29 135.35,106.8 353.4,547.55 527.78,439.31 141.1,-87.59 14.89,-225.51 -55.78,-314.25 -76.1,-95.56 -165.41,-189.45 -235.32,-287.46 83.06,-99.48 424.28,-249.74 275.43,-409.7 -126.39,-135.84 -335.57,99.14 -453.53,187.04 -282.92,210.82 -593.57,424.13 -906.64,585.52 -752.75,388.06 -1412.75,642.9 -2267,732.22 -3462.67,362.07 -6306.8,-2675.95 -5706.82,-6096.25 132.28,-754.07 435.26,-1512.23 844.06,-2156.77 205.02,-323.25 401.87,-566.76 626.67,-865.08 48.6,-64.5 117.41,-139.52 171.09,-202.28 70.86,-82.84 41.34,-214.64 -72.5,-230.62 -165.3,-23.2 -284.28,276.62 -403.12,351.97z"/>
   <path class="fil2" d="M8465.37 5439.23l144.15 504.12c94.19,-34.55 124.49,-64.33 214.18,-3.59 77,131.5 3.08,188.43 -124.33,215.88l-37.28 34.23c40.59,179.93 64.6,432.53 65.66,621.02 0.32,56.19 -26.84,183.94 19.3,207.61 108.55,-5.83 147.4,-66.11 231.24,43.72 30.63,185.55 -147.39,182.03 -295.59,242.16 -129.5,805.8 -709.25,1291.79 -1402.01,1623.45 -503.53,241.05 -1235.76,385.03 -1800.63,453.25 -275.42,33.26 -495.13,30.6 -678.24,49.64l7.98 19.68c497,74.53 782.5,107.22 1295.14,60.85 683.86,-61.85 1462.27,-351.19 2028.94,-742.58 413.51,-285.62 428.29,-342.6 740.58,-645.36 457.86,-443.86 816.69,-1234.86 885.26,-1880.34 25.65,-241.42 48.85,-1067.67 -245.46,-1138.72 -115,-27.77 -966.45,289.78 -1048.87,334.98z"/>
   <path class="fil3" d="M7579.16 1529.06c158.84,-43.49 230.84,200.47 30.62,233.2 -158.68,25.94 -224.35,-180.15 -30.62,-233.2zm-1064.11 -752.8c80.54,-20.15 163.89,-66.95 221.98,22.54 46.61,71.82 8.35,129.07 -55.71,164.43 55.29,211 246.11,403.75 107.54,847.5 -84.1,269.33 -231.5,444.66 -407.12,640.75 -437.51,488.51 -1067.43,790.27 -1185.49,917.43 220.35,-51.22 1358.42,-489.43 1694.46,-603.55 282.14,-95.83 570.35,-200.68 849.46,-305.01 717.93,-268.34 1148.19,-219.2 429.63,-1124.27 -542.72,-683.59 -1469.69,-1073.8 -2334.14,-1135.86 48.1,51.19 285.39,208.11 362.06,265.68 87.76,65.91 278.18,219.93 317.35,310.36z"/>
   <path class="fil4" d="M2320.39 6508.36c250.86,108.97 655.94,-137.51 938.15,-196.81 431.11,-90.6 629.43,193.42 1037.6,-0.5 83.79,-153.05 161.92,-162.48 317.01,-211.78 30.56,-36.97 101.86,-36.02 156.21,-53.51 174.84,-56.28 155.61,34.22 429.84,-122 619.27,-352.76 380.67,-520.23 1634.12,-543.21 299.4,-5.49 339.62,9.61 562.31,-174.61 114.99,-95.13 240.09,-262.23 353.81,-373.03 175.49,-170.98 846.32,-364.7 824.23,-640.15 -245.14,67.79 -547.08,191.81 -791.08,281.5 -253.87,93.3 -112.13,110.08 -279.02,254.14 -105.85,91.37 -249.99,129.15 -387.71,143.21 -512.99,52.36 -161.83,-109.04 -901.68,165.6 -253.76,94.19 -515.27,189.08 -771.15,276.97 -792.53,272.22 -1568.87,575.59 -2352.41,844.53 -166.51,57.15 -638.73,206.92 -768.1,280.14l-2.14 69.54z"/>
   <path class="fil5" d="M6529.31 4738.31c113.3,-95.59 975.81,-265.37 1131.61,-1235.86l-40.16 -7.91c-120.49,6.96 -3816.98,1361.33 -4282.76,1526.2 -148.57,52.59 -1365.3,463.91 -1388.21,528.81l53.65 120.53c123.88,7.77 1784.36,-613.57 2039.36,-708.12 443.09,-164.28 668.71,-223.51 1153.5,-240.67 425.23,-15.06 906.86,-2.64 1333.01,17.02z"/>
   <path class="fil6" d="M6284.77 4880.87c-484.6,-60.92 -920.9,-45.81 -1405.89,-3.89 -380.38,32.88 -791.6,194.19 -1146.35,325.12l-1620.1 582.4c-127.83,45.01 -154.1,34.47 -192.89,180.4 -26.88,101.13 -13.45,212.72 46.08,296.55 123.9,174.49 394.82,41.41 553.04,-17.23 176.03,-65.25 358.34,-131.39 535.93,-192.34l2170.7 -777.75c173.87,-64.13 977.59,-328.63 1059.47,-393.26z"/>
   <path class="fil4" d="M1959.69 4805.66c183.59,180.25 577.85,-70.48 761.16,-170.7 371.69,-203.21 404.1,-180.85 826.26,-132.15 333.06,38.42 577.31,80.81 788.59,-206.8 559.87,-762.14 719.38,-478.54 1436.5,-623.91 271.97,-55.13 469.66,-186.36 699.15,-331.2 237.57,-149.94 672.07,61.67 847.12,-147.84 199.49,-238.77 250.53,-337.03 540.34,-497.64l-5899.11 2110.25z"/>
   <path class="fil7" d="M8573.68 4192.73c22.09,275.45 -648.74,469.17 -824.23,640.15 -113.72,110.8 -238.82,277.91 -353.81,373.03 -222.69,184.22 -262.91,169.12 -562.31,174.61 -1253.45,22.98 -1014.85,190.45 -1634.12,543.21 -274.24,156.21 -255,65.71 -429.84,122 -54.35,17.49 -125.65,16.55 -156.21,53.51 361.57,-7.6 370.79,57.39 704.91,-146.21 171.02,-104.22 331.78,-260.2 503.55,-347.92 178.88,-91.35 526.97,-163.75 728.54,-144.85 200.18,18.77 506.18,204.29 664.33,134.65 226.1,-99.56 333.95,-265.07 437.68,-433.79 280.59,-456.37 599.44,-281.06 1156.73,-566.44 106.78,-54.69 372.73,-291.18 355.36,-507.01l-103.59 -75.69 -486.99 180.74z"/>
   <path class="fil8" d="M4417.29 4411.57c137.26,-30.2 491.42,-216.99 658.94,-280.99 500.71,-191.31 972.21,-215.79 1417.83,-465.59 179.75,-100.77 47.37,-75.72 358.31,-119.72 135.98,-19.24 284.65,-65.26 414.47,-74.15l365.86 -129.5c166.46,-156.05 898.42,-529.73 1120.61,-543.04 15.77,-170.19 -63.1,-259.57 -178.53,-359.32 -66.68,39.95 -124.92,121.32 -205.47,170.31 -76.91,46.78 -178.41,85.76 -260.42,130.7 -158.42,86.83 -363.11,152.47 -469.61,294.63 -122.9,164.06 -188.49,308.17 -406.01,356.78 -378.08,84.49 -507.62,-59.97 -680.33,65.96 -422.13,307.79 -625.37,351.25 -1152.88,389.85 -295.69,21.63 -345.08,7.85 -604.88,162.02 -103.08,61.17 -329.66,296.5 -377.91,402.07z"/>
   <path class="fil9" d="M7620.76 3494.54l40.16 7.91c-155.8,970.49 -1018.31,1140.26 -1131.61,1235.86 698.05,13.86 803.95,34.51 1055.9,-354.57 178.81,-276.13 418.66,-521.81 642.53,-743.19 346.84,-342.99 604.9,-278.4 598.71,-452.98 -4.78,-135.06 -110.91,-100.53 -198.48,-70.58 -140.24,47.96 -955.13,324.08 -1007.21,377.56z"/>
   <path class="fil6" d="M7816.57 4334.06c84.45,-10.19 1078.45,-378.48 1276.23,-449.96 111.64,-40.35 125.61,-84.32 147.35,-205.29 41.55,-231.2 -87.87,-341.65 -282.29,-411.77 -41.6,64.54 -34.98,106.58 -103.99,147.41 -245.06,144.97 -83.15,-11.76 -529.97,321.66 -102.17,76.24 -452.51,472.53 -507.34,597.96z"/>
   <path class="fil10" d="M5690.84 5845.82c18.02,20.69 39.15,3.25 25,149.01 -26.1,268.89 -554.55,357.96 -688.74,395.58 -119.37,33.47 -831.45,378.31 -866.38,334.55 -109.55,35.86 -152.79,52 -272.44,33.21l75.31 34.24c-529.18,77.19 -973.45,331.85 -1551.68,297.8 30.54,123.54 104.87,190.57 211.04,253.6 116.52,-15.35 3254.5,-1147.71 3331.17,-1197.57 -29.87,-49.96 -71.75,-112.19 -106.44,-161.77 -60.48,-86.42 -47.7,-117.01 -86.85,-186.12l-69.97 47.46z"/>
   <path class="fil8" d="M1762.5 5319.47c515.25,-38.59 515.85,-183.57 928.56,-323.56 288.46,-97.85 717.13,-234.31 1018.26,-249.87l188.56 -59.73c-213.02,-16.44 -407.58,-45.15 -616.66,-62.77 -631.43,-53.23 -771.98,653.2 -1560.54,251.89 -98.83,124.99 -66.9,332.66 41.83,444.04z"/>
   <path class="fil8" d="M2411.9 7090.21c578.23,34.05 1022.5,-220.61 1551.68,-297.8l-75.31 -34.24c-272.54,-42.61 -358.96,-145.09 -678.87,-140.63 -118.17,1.65 -572.9,92.72 -687.37,128.63 -81.26,113.35 -122.15,200.16 -110.14,344.04z"/>
   <path class="fil10" d="M8769.97 4749.96c77.93,75.1 -398.63,425.73 -479.59,480.36 -173.96,117.39 -568.06,228.3 -676.68,327.41l1781.91 -645.89c77.23,-188.76 -16.61,-463.49 -230.83,-457.49 -80.94,78.39 -85.79,92.54 -186.77,167.4 -64.89,48.1 -150.9,82.33 -208.04,128.22z"/>
   <path class="fil8" d="M4160.72 6724.96c34.93,43.75 747.01,-301.08 866.38,-334.55 134.19,-37.62 662.64,-126.69 688.74,-395.58 14.15,-145.76 -6.98,-128.33 -25,-149.01 -236.49,184.38 -538.57,365.22 -846.87,370.44 -188.6,3.19 -336.54,-32.59 -440.93,153.9 -63.54,113.5 -152.01,270.06 -242.32,354.81z"/>
   <path class="fil8" d="M6072.32 6096.11c74.48,-0.79 920.51,-303.67 1003.75,-351.96 -52.09,-27.35 -190.43,-45.71 -280.28,-86.33 -272.69,-123.27 -622.59,-99.56 -886.28,51.2 -15.45,159.5 77.18,270.38 162.81,387.09z"/>
   <path class="fil7" d="M2320.39 6508.36c71.86,188.68 368.31,94.12 518.47,55.79 207.53,-52.98 388.31,-78.69 605.38,-43.61 435.85,70.42 601.07,380.09 851.9,-209.5 -408.18,193.92 -606.5,-90.1 -1037.6,0.5 -282.21,59.3 -687.29,305.78 -938.15,196.81z"/>
   <path class="fil8" d="M7613.7 5557.72c108.62,-99.11 502.71,-210.02 676.68,-327.41 80.96,-54.63 557.51,-405.26 479.59,-480.36 -135.69,34.04 -273.59,100.74 -429.06,139.92 -122.66,30.91 -312.88,63.55 -413.53,138.2 -108.09,80.17 -174.13,190.76 -241.66,308.61 -69.26,120.88 -216.45,198.84 -268.28,286.9l196.28 -65.86z"/>
   <path class="fil10" d="M4417.29 4411.57c-36.26,30.73 -72.98,74.55 -80.82,120.05l2930.37 -1060.5c-129.82,8.89 -278.49,54.91 -414.47,74.15 -310.94,44 -178.56,18.95 -358.31,119.72 -445.62,249.8 -917.12,274.28 -1417.83,465.59 -167.52,64 -521.67,250.79 -658.94,280.99z"/>
   <path class="fil10" d="M1762.5 5319.47c94.41,170.82 267.86,37.42 575.68,-72.18 226.5,-80.65 1312.83,-449.07 1371.14,-501.25 -301.14,15.55 -729.81,152.02 -1018.26,249.87 -412.71,140 -413.3,284.97 -928.56,323.56z"/>
   <path class="fil11" d="M3313.84 2131.66c-114.71,30.66 -270.26,92.37 -383.9,136.02 -197.12,75.73 -107.77,270.76 50.62,229.62 108.1,-28.08 271.84,-93.97 381.14,-134.47 187.1,-69.34 111.07,-273.65 -47.86,-231.16z"/>
   <path class="fil11" d="M8747.04 7018.5c-80.25,72.87 -356.7,88.23 -398.94,189.99 -32.75,78.89 15.26,164.99 102.07,168.4 48.96,1.92 176.05,-54.55 232.52,-72.52 148.21,-60.13 326.22,-56.61 295.59,-242.16 -83.84,-109.83 -122.69,-49.55 -231.24,-43.72z"/>
   <path class="fil11" d="M7064.18 8474.44c-106.04,38.05 -291.37,87.69 -384.77,136.02 -129.97,67.24 -90.31,279.74 117.15,206.98 109.75,-38.5 277.2,-90.39 377.19,-137.68 144.12,-68.15 92.83,-277.95 -109.57,-205.32z"/>
   <path class="fil11" d="M6954.64 6821.05c-126.96,41.53 -259.59,88.54 -384.63,135.13 -163.8,61.04 -93.48,277.7 93.25,217.98 117.76,-37.66 262.27,-91.3 378.7,-136.37 158.37,-61.3 91.16,-275.13 -87.33,-216.75z"/>
   <path class="fil10" d="M7632.7 3341.62c179.44,-41.24 436.98,-147.18 616.22,-212.93 100.66,-36.93 199.48,-71.59 299.21,-108.71 142.68,-53.1 172.68,-49.17 205.18,-221.4 -222.19,13.31 -954.15,387 -1120.61,543.04z"/>
   <path class="fil11" d="M4774.17 588.08c-62.73,16.18 -282.01,89.18 -334.36,117.04 -121.57,64.69 -84.26,250.62 77.26,219.72 60.66,-11.6 261.38,-89.57 328.01,-116.19 147.51,-58.94 72.35,-257.53 -70.91,-220.57z"/>
   <path class="fil11" d="M4128.74 7667.03c-121.27,-67.16 -196.43,-2.9 -323.43,41.03 -91.74,31.73 -303.37,89.35 -181.93,234.73 71.62,85.75 236.22,-5.09 324.81,-37.91 139.88,-51.82 247.18,-55.31 180.55,-237.85z"/>
   <path class="fil11" d="M6515.05 776.25c-77.16,41.18 -367.06,92.31 -241.96,253.4 70.25,90.46 328.37,-12.23 408.23,-66.44 64.06,-35.35 102.32,-92.6 55.71,-164.43 -58.09,-89.49 -141.44,-42.69 -221.98,-22.54z"/>
   <path class="fil11" d="M5504.86 2631.99c147.37,56.95 631.28,-118.9 439.54,-278.02 -77.03,-63.92 -232.83,16.91 -321.23,49.36 -126.73,46.53 -199.66,81.27 -118.31,228.65z"/>
   <path class="fil11" d="M3621.31 3294.23c-52.99,337.94 473.96,44.77 491.54,-4.42 101.53,-283.95 -403.41,-97.18 -491.54,4.42z"/>
   <path class="fil11" d="M2052.31 3410.74c-58.24,18.25 -220.63,64.67 -250.2,110.39 -71.42,110.46 22.55,211.53 154.84,172.48 458,-135.17 232.61,-325.9 95.36,-282.88z"/>
   <path class="fil11" d="M5517.84 7532.41c-58.59,17.35 -218.24,62.49 -250.08,110.98 -64.06,97.58 21.52,208.53 153.46,171.61 419.26,-117.32 241.14,-325.38 96.61,-282.59z"/>
   <path class="fil11" d="M5249.07 8668.1c-73.48,23.54 -196.32,42.57 -218.84,123.81 -28.67,103.4 58.09,171.39 161.88,144.43 373.51,-97.01 235.31,-325.37 56.96,-268.25z"/>
   <path class="fil11" d="M2870.57 1604.89c264.68,35.54 347.89,-215.69 188.75,-256.54 -111.02,-28.5 -382.66,92.53 -188.75,256.54z"/>
   <path class="fil11" d="M4450.65 1830.17c-84.88,30.13 -151.56,34.5 -141.57,148.78 9.57,109.5 103.39,109.34 189.48,82.19 231.44,-73.01 155.31,-303.08 -47.9,-230.96z"/>
   <path class="fil11" d="M8609.51 5943.35c-70.54,118.78 -62.83,199.52 89.85,212.29 127.41,-27.45 201.34,-84.38 124.33,-215.88 -89.69,-60.74 -119.99,-30.96 -214.18,3.59z"/>
   <path class="fil11" d="M7579.16 1529.06c-193.73,53.05 -128.06,259.13 30.62,233.2 200.23,-32.73 128.22,-276.69 -30.62,-233.2z"/>
  </g>
 </g>
</svg>
