<?xml version="1.0" encoding="UTF-8"?>
<!DOCTYPE svg PUBLIC "-//W3C//DTD SVG 1.1//EN" "http://www.w3.org/Graphics/SVG/1.1/DTD/svg11.dtd">
<!-- Creator: CorelDRAW 2020 (64-Bit) -->
<svg xmlns="http://www.w3.org/2000/svg" xml:space="preserve" width="198.188mm" height="248.687mm" version="1.1" style="shape-rendering:geometricPrecision; text-rendering:geometricPrecision; image-rendering:optimizeQuality; fill-rule:evenodd; clip-rule:evenodd"
viewBox="0 0 14776.12 18541.19"
 xmlns:xlink="http://www.w3.org/1999/xlink"
 xmlns:xodm="http://www.corel.com/coreldraw/odm/2003">
 <defs>
  <style type="text/css">
   <![CDATA[
    .fil1 {fill:black}
    .fil7 {fill:#96A043}
    .fil10 {fill:#9D4531}
    .fil4 {fill:#A4AE44}
    .fil8 {fill:#AD654E}
    .fil6 {fill:#D9675F}
    .fil2 {fill:#EB9E4B}
    .fil0 {fill:#ECB04C}
    .fil3 {fill:#ED9E4C}
    .fil9 {fill:#EFBE44}
    .fil5 {fill:#F4CF71}
    .fil11 {fill:#F4D976}
   ]]>
  </style>
 </defs>
 <g id="Layer_x0020_1">
  <metadata id="CorelCorpID_0Corel-Layer"/>
  <g id="_1646345555280">
   <path class="fil0" d="M3038.64 5049.93c203.21,-63.69 536.93,218.69 -141.19,418.83 -195.87,57.81 -335,-91.83 -229.25,-255.38 43.77,-67.7 284.21,-136.42 370.44,-163.45zm2323.06 -172.5c130.48,-150.42 878.09,-426.96 727.77,-6.55 -26.04,72.83 -806.23,506.89 -727.77,6.55zm2788.78 -980.52c-120.46,-218.21 -12.47,-269.66 175.16,-338.55 130.88,-48.05 361.57,-167.73 475.62,-73.09 283.9,235.58 -432.58,495.96 -650.78,411.63zm-3244.02 -740.78c235.31,-62.9 347.87,239.59 70.86,342.26 -161.82,59.97 -404.26,157.53 -564.31,199.1 -234.51,60.91 -366.79,-227.84 -74.94,-339.97 168.24,-64.63 398.55,-155.99 568.39,-201.39zm1683.16 -446.4c300.88,-106.79 413.6,233.86 70.93,341.96 -127.46,40.21 -266.37,40.44 -280.54,-121.68 -14.79,-169.2 83.94,-175.67 209.61,-220.28zm-2339.46 -333.54c-287.09,-242.82 115.09,-422.03 279.47,-379.83 235.62,60.48 112.42,432.45 -279.47,379.83zm2818.46 -1505.49c212.11,-54.72 323.39,239.32 104.99,326.58 -98.65,39.42 -395.83,154.85 -485.64,172.03 -239.15,45.75 -294.39,-229.54 -114.39,-325.32 77.51,-41.24 402.16,-149.33 495.05,-173.29zm624.92 4117.29c174.81,-188.27 1107.47,-635.06 1755.24,-1358.35 260.03,-290.34 478.26,-549.93 602.79,-948.7 205.16,-657.01 -77.36,-942.4 -159.22,-1254.8 -118.24,80.26 -500.41,232.31 -604.43,98.37 -185.21,-238.51 244,-314.22 358.25,-375.19 -57.99,-133.9 -339.92,-361.94 -469.86,-459.52 -113.51,-85.23 -464.84,-317.57 -536.06,-393.36 -1528.43,-92.01 -2864.38,256.77 -4146.12,1061.52 -1708.79,1072.86 -2956.74,3093.17 -2465.01,5192.25 48.95,208.97 75.39,335.56 330.29,330.3 178.86,-3.69 3908.37,-1372.44 4376.79,-1544.89 231.29,-85.14 781.23,-247.99 957.34,-347.63z"/>
   <path class="fil0" d="M7771.77 12833.98c264.06,-84.58 468.68,253.54 -84.34,397.17 -153.68,39.91 -282.13,-60.75 -239.68,-213.85 33.36,-120.29 215.22,-148.46 324.02,-183.32zm2687.45 -286.74c299.67,-107.53 375.61,203.1 162.23,304 -148.05,70.02 -395.98,146.85 -558.47,203.85 -307.16,107.73 -365.88,-206.9 -173.45,-306.46 138.29,-71.55 412.68,-145.06 569.69,-201.39zm-4346.21 -1195.44c98.65,270.27 -60.22,275.44 -267.33,352.17 -131.17,48.59 -374.88,183.08 -480.92,56.13 -179.79,-215.25 133.55,-300.56 269.37,-347.54 188.05,-65.04 299.32,-160.18 478.87,-60.75zm2056.69 -199.31c213.98,-63.36 477.72,244.7 -143.04,418.4 -195.35,54.66 -322.07,-109.61 -227.22,-254.09 47.13,-71.79 283.51,-138.63 370.26,-164.31zm2127.33 -1053.24c264.26,-86.45 363.78,230.16 129.3,320.91 -172.4,66.73 -386.36,146.15 -560.71,201.91 -276.48,88.42 -380.59,-232.36 -138.07,-322.74 185.14,-68.99 381.5,-138.59 569.48,-200.08zm-3187.49 3863.86c271.12,-28.2 596.41,-24.25 1004.2,-73.5 836.35,-101 1920.49,-314.18 2666.01,-671.08 1025.7,-491.04 1884.08,-1210.61 2075.82,-2403.67 -83.61,26.6 -271.78,110.22 -344.26,107.37 -128.53,-5.05 -199.6,-132.53 -151.12,-249.34 62.54,-150.67 471.84,-173.41 590.66,-281.3 -68.32,-35.05 -28.1,-224.19 -28.57,-307.39 -1.57,-279.08 -37.11,-653.08 -97.21,-919.48l55.19 -50.68c-226.06,-18.91 -237.48,-138.44 -133.03,-314.31l-213.42 -746.4c-535.54,161.94 -1112.47,401.56 -1647.09,591.24l-4935.03 1771.17c-545.62,201.32 -1097.25,394.36 -1644.96,590.31 -308.65,110.43 -585.88,197.42 -400.95,583.61 339.95,709.92 909.33,1344.25 1589.92,1749.22 362.93,215.95 1209.98,628.4 1613.84,624.22z"/>
   <path class="fil1" d="M7109.54 13963.1c-403.86,4.18 -1250.9,-408.27 -1613.84,-624.22 -680.59,-404.97 -1249.97,-1039.3 -1589.92,-1749.22 -184.93,-386.19 92.3,-473.19 400.95,-583.61 547.71,-195.95 1099.33,-388.99 1644.96,-590.31l4935.03 -1771.17c534.62,-189.68 1111.55,-429.3 1647.09,-591.24 122.04,-66.92 1382.69,-537.08 1552.96,-495.97 435.76,105.2 401.4,1328.53 363.43,1685.99 -101.53,955.7 -632.82,2126.85 -1310.72,2784.03 -462.38,448.25 -484.26,532.63 -1096.51,955.51 -839,579.49 -1991.52,1007.88 -3004.04,1099.46 -759,68.64 -1181.72,20.24 -1917.58,-90.1l-11.81 -29.14zm-3538.49 -3465.34c-17.79,-213.03 42.76,-341.57 163.07,-509.39 169.47,-53.17 842.75,-188.01 1017.72,-190.45 473.66,-6.61 601.62,145.14 1005.14,208.22 177.15,27.82 241.18,3.93 403.38,-49.17 133.71,-125.49 264.7,-357.29 358.77,-525.34 154.56,-276.11 373.6,-223.14 652.84,-227.86 456.48,-7.72 903.73,-275.47 1253.88,-548.47l103.6 -70.27c57.97,102.32 39.05,147.61 128.59,275.57 51.37,73.41 113.37,165.54 157.6,239.51 -113.52,73.82 -4759.6,1750.39 -4932.12,1773.12 -157.21,-93.33 -267.25,-192.57 -312.47,-375.48zm5419.61 -1471.87c-126.78,-172.79 -263.94,-336.97 -241.06,-573.12 390.42,-223.22 908.49,-258.32 1312.23,-75.81 133.02,60.14 337.85,87.33 414.98,127.82 -123.24,71.5 -1375.88,519.95 -1486.15,521.11zm314.56 -1799.29c-121.24,95.69 -1311.22,487.31 -1568.66,582.26l-3213.94 1151.53c-262.94,90.24 -532.87,188.17 -793.5,284.78 -234.26,86.83 -635.38,283.86 -818.83,25.51 -88.14,-124.13 -108.02,-289.35 -68.22,-439.08 57.43,-216.06 96.33,-200.45 285.59,-267.1l2398.71 -862.3c525.25,-193.85 1134.1,-432.69 1697.29,-481.36 718.08,-62.07 1364.07,-84.44 2081.56,5.76zm1967.61 1002.16l-290.61 97.52c76.74,-130.37 294.67,-245.8 397.22,-424.78 99.98,-174.49 197.77,-338.24 357.8,-456.93 149.02,-110.53 430.67,-158.86 612.28,-204.62 230.2,-58 434.36,-156.77 635.27,-207.16 84.6,-67.94 211.94,-118.62 308.02,-189.84 149.52,-110.84 156.69,-131.79 276.54,-247.85 317.18,-8.88 456.11,397.88 341.77,677.36l-2638.29 956.31zm-5780.82 -1201.78c-86.33,77.26 -1694.75,622.73 -2030.11,742.15 -455.75,162.29 -712.56,359.79 -852.35,106.88 -160.98,-164.92 -208.26,-472.4 -61.93,-657.45 1167.54,594.18 1375.64,-451.75 2310.54,-372.95 309.56,26.09 597.62,68.61 913.02,92.94l-279.18 88.43zm1338.2 2003.57c-229.63,73 -345.3,86.96 -469.36,313.56 -371.38,872.95 -616.01,414.45 -1261.33,310.18 -321.4,-51.94 -589.06,-13.87 -896.33,64.57 -222.33,56.75 -661.25,196.75 -767.64,-82.61l3.16 -102.96c191.54,-108.41 890.72,-330.16 1137.24,-414.77 1160.11,-398.19 2309.54,-847.35 3482.97,-1250.41 378.86,-130.13 766.06,-270.62 1141.77,-410.08 1095.43,-406.63 575.49,-167.65 1335.03,-245.19 203.9,-20.82 417.32,-76.76 574.05,-212.04 247.1,-213.29 37.24,-238.13 413.12,-376.28 361.28,-132.78 808.33,-316.42 1171.28,-416.78l721.03 -267.6 153.37 112.07c25.71,319.57 -368.04,669.72 -526.14,750.68 -825.12,422.53 -1297.2,162.97 -1712.65,838.67 -153.59,249.8 -313.27,494.85 -648.04,642.26 -234.15,103.11 -687.22,-171.58 -983.61,-199.36 -298.46,-27.98 -813.83,79.22 -1078.68,214.47 -254.33,129.88 -492.35,360.82 -745.56,515.12 -494.7,301.45 -508.35,205.23 -1043.68,216.48zm4742.98 -2613.55c81.18,-185.7 599.89,-772.45 751.17,-885.33 661.56,-493.65 421.83,-261.6 784.67,-476.24 102.18,-60.45 92.38,-122.69 153.97,-218.25 287.85,103.82 479.47,267.35 417.95,609.66 -32.19,179.12 -52.87,244.22 -218.17,303.96 -292.84,105.83 -1764.55,651.11 -1889.59,666.2zm-1905.91 598.54c-630.96,-29.11 -1344.06,-47.48 -1973.65,-25.19 -717.78,25.41 -1051.83,113.11 -1707.87,356.34 -377.55,139.99 -2836.05,1059.94 -3019.47,1048.44l-79.44 -178.46c33.92,-96.09 1835.4,-705.09 2055.38,-782.96 689.64,-244.11 6162.65,-2249.38 6341.05,-2259.7 77.11,-79.18 1283.63,-488.01 1491.27,-559.02 129.66,-44.34 286.79,-95.46 293.87,104.51 9.16,258.49 -372.92,162.85 -886.44,670.69 -331.45,327.78 -686.57,691.53 -951.32,1100.37 -373.05,576.07 -529.84,545.5 -1563.37,524.98zm1633.68 -2067.94l-541.7 191.74 -4338.7 1570.18c11.61,-67.37 65.98,-132.26 119.66,-177.75 71.43,-156.31 406.91,-504.75 559.53,-595.31 384.67,-228.27 457.79,-207.86 895.58,-239.88 781.03,-57.15 1081.95,-121.5 1706.95,-577.21 255.71,-186.44 447.5,27.44 1007.29,-97.65 322.06,-71.98 419.17,-285.34 601.13,-528.25 157.68,-210.49 460.74,-307.66 695.3,-436.23 121.42,-66.54 271.71,-124.26 385.58,-193.51 119.26,-72.54 205.5,-193.01 304.22,-252.16 170.91,147.69 287.68,280.03 264.32,532.01 -48.12,255.01 -92.55,249.19 -303.79,327.81 -147.65,54.96 -293.97,106.28 -443.01,160.95 -265.38,97.35 -646.69,254.21 -912.37,315.27zm334.78 -956.77c-429.09,237.79 -504.66,383.29 -800.03,736.8 -259.17,310.2 -902.49,-3.1 -1254.24,218.9 -339.78,214.45 -632.48,408.75 -1035.15,490.38 -1061.77,215.24 -1297.94,-204.66 -2126.88,923.76 -312.83,425.84 -674.47,363.08 -1167.59,306.2 -625.05,-72.1 -673.03,-105.21 -1223.36,195.66 -271.41,148.38 -855.16,519.62 -1126.98,252.74l8734.22 -3124.43zm-3942.19 997.17c-176.11,99.64 -726.05,262.48 -957.34,347.63 -468.42,172.45 -4197.93,1541.2 -4376.79,1544.89 -254.9,5.26 -281.34,-121.33 -330.29,-330.3 -491.73,-2099.08 756.22,-4119.38 2465.01,-5192.25 1281.74,-804.75 2617.69,-1153.53 4146.12,-1061.52 1279.91,91.88 2652.38,669.63 3455.93,1681.75 1063.9,1340.04 426.86,1267.28 -636.11,1664.59 -413.26,154.47 -839.98,309.71 -1257.71,451.59 -497.54,168.97 -2182.57,817.79 -2508.82,893.62zm5485.94 -1296.67l-327.79 -340.52c147.22,-279.86 113.53,-468.55 -11.16,-743.78 -1399.21,-2723.49 -4981.03,-3180.05 -7584.11,-1985.12 -1207.92,554.48 -2197.6,1364.56 -2898.75,2491.55 -597.36,960.15 -885.68,2140.82 -685.11,3265.28 26.98,151.26 76.14,406.89 145,539.21 115.46,221.86 271.24,201.79 383.11,304.33 -82.61,524.53 -47.74,712.86 369.39,1049.98 37.08,243.55 98.88,184.66 13.2,405.72 -61.66,159.07 -84.77,330.75 -53.45,499.62 64.42,347.4 290.28,471.51 597.01,561.09 107.54,180.55 49.22,152.24 222.37,300.69 -37.67,237.16 -153.59,312.99 -59.69,613.21 73.92,236.35 169.03,284.91 326.66,435.67 -73.26,380.04 -219.81,290.06 209.51,1027.74 503.22,864.67 1353.05,1524.53 2277.83,1903.35 4129.51,1691.54 9217.61,-1770.67 8625.3,-5785.08 -121.27,-821.94 -260.93,-695.57 -491.3,-937.14 44.31,-495.58 -22.12,-621.18 -394.31,-927.59 13.3,-118.7 48.54,-164.76 24.29,-300.04 -34.74,-193.84 -69.46,-71.12 24.51,-256.79 186.9,-369.3 127.42,-842.58 -224.81,-1092.32 -232.08,-164.54 -248.81,-54.9 -447.07,-317.49 17.68,-144.18 62.07,-202.2 53.81,-368.78 -7.63,-153.71 -75.77,-218.2 -94.43,-342.79z"/>
   <path class="fil1" d="M9875.77 17438.1c73.92,-37.68 432.69,-39.23 507.51,7.43 126.78,79.04 121.59,291.94 -26.71,346.66 -78.69,29.04 -420.48,28.82 -495.03,-8.75 -133.18,-67.12 -139.21,-267.13 14.23,-345.34zm-4770.34 11.21c146.86,-82.07 2144.93,-34.04 2487.32,-34.04l1894.16 3.54c203.22,33.06 229.42,303.02 53.02,372.33l-4384.32 12.95c-173.54,-31.87 -231.91,-253.21 -50.17,-354.78zm-2846.45 -16022.65c-198.59,-118.72 -599.44,-673.36 -797.17,-390.47 -192.73,275.75 446,543.15 534,738.14 -11.87,26.57 -761.65,1093.99 -1094.68,1801.68 -1095.89,2328.77 -1231.96,4703.33 -188.55,7102.68 826.02,1899.46 2508.89,3486.03 4432.88,4245.8 564.77,223.02 1114.72,374.64 1711.37,471.99 180.55,29.46 500.01,44.23 648.12,87.55l10.38 1213.51c-364.76,0 -1870.65,-20.76 -2105.46,13.44 -629.14,91.64 -921.71,566.26 -1000,1153.48 -287.55,21.56 -1165.48,-130.59 -1002.21,429.15 71.97,246.74 286.61,239.51 503.29,239.07l7468.78 -0.03c204.78,0 518.18,50.91 672.95,-96.2 151.71,-144.19 135.98,-388.45 -45.43,-511.55 -141.7,-96.15 -523.88,-46.84 -705.89,-60.44 -227.91,-1614.68 -1618,-1080.8 -3192.57,-1169.89l-9.85 -1184.86c225.47,-37.38 589.27,-22.61 842.34,-47.46 276.63,-27.16 536.83,-66.78 809.51,-117.04 1311.5,-241.73 2776.65,-903.85 3843.15,-1679.43 200.4,158.13 523.25,810.69 781.42,650.44 208.91,-129.68 22.05,-333.89 -82.59,-465.28 -112.67,-141.49 -244.9,-280.5 -348.42,-425.62 122.97,-147.29 628.18,-369.77 407.81,-606.6 -187.14,-201.12 -496.84,146.79 -671.49,276.92 -418.89,312.14 -878.84,627.96 -1342.37,866.93 -1114.52,574.57 -2091.71,951.88 -3356.51,1084.13 -5126.83,536.08 -9337.84,-3962.01 -8449.5,-9026.1 195.85,-1116.48 644.45,-2239.01 1249.71,-3193.3 303.56,-478.61 595.01,-839.15 927.85,-1280.83 71.96,-95.5 173.84,-206.58 253.32,-299.5 104.92,-122.66 61.21,-317.8 -107.35,-341.45 -244.74,-34.35 -420.9,409.57 -596.86,521.13z"/>
   <path class="fil2" d="M12533.81 8053.32l213.42 746.4c139.46,-51.16 184.33,-95.25 317.12,-5.32 114.01,194.7 4.56,278.99 -184.09,319.63l-55.19 50.68c60.1,266.4 95.65,640.4 97.21,919.48 0.47,83.2 -39.75,272.34 28.57,307.39 160.71,-8.63 218.24,-97.88 342.37,64.73 45.35,274.72 -218.22,269.51 -437.65,358.54 -191.74,1193.06 -1050.12,1912.63 -2075.82,2403.67 -745.53,356.9 -1829.66,570.08 -2666.01,671.08 -407.79,49.25 -733.08,45.3 -1004.2,73.5l11.81 29.14c735.86,110.34 1158.57,158.75 1917.58,90.1 1012.53,-91.58 2165.04,-519.97 3004.04,-1099.46 612.25,-422.88 634.13,-507.26 1096.51,-955.51 677.9,-657.18 1209.19,-1828.34 1310.72,-2784.03 37.97,-357.45 72.33,-1580.79 -363.43,-1685.99 -170.27,-41.11 -1430.92,429.05 -1552.96,495.97z"/>
   <path class="fil3" d="M11221.69 2263.92c235.17,-64.39 341.79,296.81 45.33,345.27 -234.94,38.4 -332.17,-266.72 -45.33,-345.27zm-1575.52 -1114.6c119.25,-29.84 242.66,-99.13 328.66,33.37 69.01,106.34 12.36,191.1 -82.48,243.45 81.86,312.41 364.39,597.79 159.22,1254.8 -124.52,398.76 -342.76,658.36 -602.79,948.7 -647.77,723.29 -1580.43,1170.08 -1755.24,1358.35 326.25,-75.83 2011.28,-724.64 2508.82,-893.62 417.73,-141.88 844.45,-297.13 1257.71,-451.59 1062.96,-397.31 1700,-324.54 636.11,-1664.59 -803.55,-1012.12 -2176.02,-1589.87 -3455.93,-1681.75 71.22,75.79 422.55,308.13 536.06,393.36 129.94,97.58 411.87,325.62 469.86,459.52z"/>
   <path class="fil4" d="M3435.56 9636.26c371.42,161.34 971.18,-203.6 1389.02,-291.4 638.3,-134.14 931.93,286.38 1536.28,-0.75 124.06,-226.6 239.74,-240.56 469.36,-313.56 45.25,-54.73 150.81,-53.33 231.28,-79.23 258.87,-83.33 230.39,50.66 636.43,-180.63 916.89,-522.3 563.62,-770.26 2419.48,-804.28 443.3,-8.13 502.84,14.23 832.55,-258.53 170.26,-140.84 355.48,-388.26 523.85,-552.31 259.83,-253.16 1253.07,-539.98 1220.36,-947.81 -362.95,100.37 -810,284 -1171.28,416.78 -375.88,138.15 -166.01,162.99 -413.12,376.28 -156.72,135.28 -370.14,191.22 -574.05,212.04 -759.53,77.53 -239.6,-161.44 -1335.03,245.19 -375.71,139.46 -762.91,279.95 -1141.77,410.08 -1173.43,403.05 -2322.86,852.22 -3482.97,1250.41 -246.53,84.61 -945.7,306.36 -1137.24,414.77l-3.16 102.96z"/>
   <path class="fil5" d="M9667.28 7015.53c167.75,-141.54 1444.78,-392.91 1675.47,-1829.81l-59.47 -11.71c-178.4,10.31 -5651.41,2015.58 -6341.05,2259.7 -219.98,77.87 -2021.46,686.87 -2055.38,782.96l79.44 178.46c183.42,11.5 2641.92,-908.45 3019.47,-1048.44 656.04,-243.23 990.08,-330.93 1707.87,-356.34 629.59,-22.29 1342.69,-3.91 1973.65,25.19z"/>
   <path class="fil6" d="M9305.22 7226.6c-717.49,-90.2 -1363.48,-67.82 -2081.56,-5.76 -563.19,48.68 -1172.04,287.52 -1697.29,481.36l-2398.71 862.3c-189.26,66.65 -228.16,51.03 -285.59,267.1 -39.8,149.73 -19.92,314.95 68.22,439.08 183.45,258.34 584.57,61.32 818.83,-25.51 260.63,-96.61 530.56,-194.54 793.5,-284.78l3213.94 -1151.53c257.44,-94.95 1447.41,-486.57 1568.66,-582.26z"/>
   <path class="fil4" d="M2901.52 7115.25c271.82,266.88 855.56,-104.36 1126.98,-252.74 550.33,-300.87 598.31,-267.76 1223.36,-195.66 493.12,56.89 854.76,119.65 1167.59,-306.2 828.94,-1128.42 1065.11,-708.52 2126.88,-923.76 402.68,-81.62 695.37,-275.93 1035.15,-490.38 351.75,-222 995.06,91.3 1254.24,-218.9 295.37,-353.52 370.94,-499.01 800.03,-736.8l-8734.22 3124.43z"/>
   <path class="fil7" d="M12694.17 6207.75c32.71,407.83 -960.53,694.66 -1220.36,947.81 -168.37,164.05 -353.6,411.47 -523.85,552.31 -329.72,272.76 -389.26,250.4 -832.55,258.53 -1855.85,34.03 -1502.58,281.99 -2419.48,804.28 -406.03,231.29 -377.55,97.3 -636.43,180.63 -80.47,25.9 -186.03,24.5 -231.28,79.23 535.34,-11.25 548.99,84.96 1043.68,-216.48 253.22,-154.3 491.24,-385.25 745.56,-515.12 264.85,-135.25 780.22,-242.45 1078.68,-214.47 296.38,27.79 749.45,302.47 983.61,199.36 334.76,-147.41 494.45,-392.46 648.04,-642.26 415.44,-675.7 887.53,-416.14 1712.65,-838.67 158.1,-80.97 551.86,-431.11 526.14,-750.68l-153.37 -112.07 -721.03 267.6z"/>
   <path class="fil8" d="M6540.23 6531.76c203.23,-44.72 727.59,-321.27 975.62,-416.03 741.35,-283.25 1439.45,-319.5 2099.24,-689.35 266.14,-149.19 70.14,-112.12 530.51,-177.26 201.34,-28.48 421.46,-96.62 613.67,-109.78l541.7 -191.74c246.46,-231.04 1330.2,-784.32 1659.17,-804.03 23.35,-251.99 -93.42,-384.32 -264.32,-532.01 -98.72,59.15 -184.96,179.62 -304.22,252.16 -113.87,69.26 -264.15,126.97 -385.58,193.51 -234.56,128.56 -537.62,225.74 -695.3,436.23 -181.96,242.9 -279.07,456.27 -601.13,528.25 -559.79,125.1 -751.58,-88.79 -1007.29,97.65 -625.01,455.72 -925.92,520.07 -1706.95,577.21 -437.79,32.03 -510.92,11.62 -895.58,239.88 -152.62,90.56 -488.1,439 -559.53,595.31z"/>
   <path class="fil9" d="M11283.28 5174.01l59.47 11.71c-230.68,1436.9 -1507.71,1688.27 -1675.47,1829.81 1033.53,20.52 1190.32,51.09 1563.37,-524.98 264.75,-408.84 619.87,-772.59 951.32,-1100.37 513.53,-507.83 895.61,-412.2 886.44,-670.69 -7.08,-199.97 -164.21,-148.84 -293.87,-104.51 -207.64,71.01 -1414.16,479.84 -1491.27,559.02z"/>
   <path class="fil6" d="M11573.19 6417c125.04,-15.09 1596.75,-560.37 1889.59,-666.2 165.3,-59.74 185.97,-124.84 218.17,-303.96 61.52,-342.31 -130.1,-505.84 -417.95,-609.66 -61.59,95.56 -51.79,157.8 -153.97,218.25 -362.84,214.64 -123.11,-17.41 -784.67,476.24 -151.27,112.89 -669.98,699.63 -751.17,885.33z"/>
   <path class="fil10" d="M8425.85 8655.31c26.68,30.63 57.97,4.82 37.02,220.63 -38.65,398.12 -821.07,530 -1019.75,585.7 -176.74,49.56 -1231.04,560.12 -1282.76,495.34 -162.2,53.1 -226.23,76.99 -403.38,49.17l111.5 50.69c-783.5,114.29 -1441.29,491.33 -2297.42,440.93 45.22,182.91 155.26,282.15 312.47,375.48 172.52,-22.73 4818.6,-1699.3 4932.12,-1773.12 -44.23,-73.97 -106.23,-166.1 -157.6,-239.51 -89.54,-127.95 -70.62,-173.25 -128.59,-275.57l-103.6 70.27z"/>
   <path class="fil8" d="M2609.56 7876c762.88,-57.14 763.76,-271.79 1374.82,-479.07 427.09,-144.88 1061.78,-346.93 1507.64,-369.96l279.18 -88.43c-315.4,-24.34 -603.46,-66.85 -913.02,-92.94 -934.89,-78.81 -1142.99,967.12 -2310.54,372.95 -146.33,185.06 -99.06,492.53 61.93,657.45z"/>
   <path class="fil8" d="M3571.05 10497.76c856.13,50.41 1513.92,-326.63 2297.42,-440.93l-111.5 -50.69c-403.52,-63.08 -531.47,-214.83 -1005.14,-208.22 -174.97,2.44 -848.24,137.28 -1017.72,190.45 -120.31,167.82 -180.86,296.36 -163.07,509.39z"/>
   <path class="fil10" d="M12984.8 7032.79c115.38,111.19 -590.21,630.33 -710.07,711.21 -257.57,173.81 -841.06,338.02 -1001.89,484.76l2638.29 -956.31c114.34,-279.48 -24.6,-686.24 -341.77,-677.36 -119.84,116.06 -127.01,137.02 -276.54,247.85 -96.08,71.22 -223.42,121.9 -308.02,189.84z"/>
   <path class="fil8" d="M6160.35 9956.97c51.72,64.78 1106.03,-445.78 1282.76,-495.34 198.68,-55.7 981.1,-187.58 1019.75,-585.7 20.95,-215.81 -10.33,-190 -37.02,-220.63 -350.15,273 -797.4,540.75 -1253.88,548.47 -279.24,4.72 -498.28,-48.25 -652.84,227.86 -94.08,168.05 -225.06,399.85 -358.77,525.34z"/>
   <path class="fil8" d="M8990.66 9025.89c110.28,-1.16 1362.91,-449.61 1486.15,-521.11 -77.13,-40.49 -281.96,-67.68 -414.98,-127.82 -403.74,-182.51 -921.81,-147.41 -1312.23,75.81 -22.88,236.15 114.28,400.33 241.06,573.12z"/>
   <path class="fil7" d="M3435.56 9636.26c106.39,279.35 545.31,139.36 767.64,82.61 307.27,-78.44 574.93,-116.51 896.33,-64.57 645.31,104.27 889.95,562.77 1261.33,-310.18 -604.35,287.12 -897.98,-133.4 -1536.28,0.75 -417.84,87.8 -1017.6,452.74 -1389.02,291.4z"/>
   <path class="fil8" d="M11272.84 8228.76c160.83,-146.74 744.32,-310.95 1001.89,-484.76 119.86,-80.89 825.45,-600.02 710.07,-711.21 -200.91,50.39 -405.07,149.16 -635.27,207.16 -181.6,45.76 -463.26,94.09 -612.28,204.62 -160.03,118.69 -257.82,282.44 -357.8,456.93 -102.55,178.98 -320.48,294.41 -397.22,424.78l290.61 -97.52z"/>
   <path class="fil10" d="M6540.23 6531.76c-53.68,45.49 -108.05,110.38 -119.66,177.75l4338.7 -1570.18c-192.21,13.17 -412.33,81.3 -613.67,109.78 -460.38,65.14 -264.37,28.06 -530.51,177.26 -659.79,369.86 -1357.89,406.1 -2099.24,689.35 -248.03,94.76 -772.39,371.31 -975.62,416.03z"/>
   <path class="fil10" d="M2609.56 7876c139.79,252.91 396.59,55.41 852.35,-106.88 335.35,-119.42 1943.78,-664.89 2030.11,-742.15 -445.86,23.03 -1080.55,225.08 -1507.64,369.96 -611.06,207.28 -611.94,421.93 -1374.82,479.07z"/>
   <path class="fil11" d="M4906.46 3156.14c-169.85,45.4 -400.15,136.76 -568.39,201.39 -291.85,112.13 -159.57,400.88 74.94,339.97 160.05,-41.57 402.48,-139.13 564.31,-199.1 277.01,-102.67 164.45,-405.16 -70.86,-342.26z"/>
   <path class="fil11" d="M12950.85 10391.57c-118.82,107.89 -528.13,130.63 -590.66,281.3 -48.48,116.81 22.59,244.28 151.12,249.34 72.48,2.85 260.66,-80.77 344.26,-107.37 219.43,-89.04 483,-83.82 437.65,-358.54 -124.13,-162.61 -181.66,-73.36 -342.37,-64.73z"/>
   <path class="fil11" d="M10459.22 12547.23c-157.01,56.33 -431.4,129.84 -569.69,201.39 -192.43,99.55 -133.72,414.19 173.45,306.46 162.5,-57 410.42,-133.84 558.47,-203.85 213.39,-100.9 137.44,-411.53 -162.23,-304z"/>
   <path class="fil11" d="M10297.03 10099.24c-187.98,61.49 -384.34,131.09 -569.48,200.08 -242.52,90.38 -138.41,411.16 138.07,322.74 174.35,-55.76 388.31,-135.18 560.71,-201.91 234.49,-90.76 134.97,-407.36 -129.3,-320.91z"/>
   <path class="fil10" d="M11300.96 4947.59c265.68,-61.05 646.99,-217.92 912.37,-315.27 149.04,-54.67 295.35,-106 443.01,-160.95 211.25,-78.62 255.68,-72.8 303.79,-327.81 -328.97,19.71 -1412.71,572.99 -1659.17,804.03z"/>
   <path class="fil11" d="M7068.63 870.71c-92.88,23.96 -417.54,132.05 -495.05,173.29 -180,95.78 -124.76,371.07 114.39,325.32 89.82,-17.18 387,-132.61 485.64,-172.03 218.4,-87.26 107.11,-381.3 -104.99,-326.58z"/>
   <path class="fil11" d="M6113.01 11351.79c-179.55,-99.44 -290.83,-4.29 -478.87,60.75 -135.83,46.99 -449.16,132.29 -269.37,347.54 106.03,126.95 349.75,-7.54 480.92,-56.13 207.11,-76.73 365.98,-81.89 267.33,-352.17z"/>
   <path class="fil11" d="M9646.18 1149.32c-114.25,60.97 -543.46,136.68 -358.25,375.19 104.01,133.94 486.19,-18.11 604.43,-98.37 94.84,-52.35 151.49,-137.11 82.48,-243.45 -86,-132.5 -209.41,-63.21 -328.66,-33.37z"/>
   <path class="fil11" d="M8150.48 3896.91c218.2,84.32 934.67,-176.05 650.78,-411.63 -114.05,-94.64 -344.73,25.04 -475.62,73.09 -187.64,68.89 -295.62,120.33 -175.16,338.55z"/>
   <path class="fil11" d="M5361.7 4877.43c-78.46,500.35 701.74,66.29 727.77,-6.55 150.32,-420.42 -597.29,-143.88 -727.77,6.55z"/>
   <path class="fil11" d="M3038.64 5049.93c-86.23,27.03 -326.67,95.75 -370.44,163.45 -105.75,163.55 33.39,313.19 229.25,255.38 678.12,-200.14 344.4,-482.52 141.19,-418.83z"/>
   <path class="fil11" d="M8169.7 11152.48c-86.75,25.68 -323.13,92.52 -370.26,164.31 -94.85,144.48 31.87,308.75 227.22,254.09 620.76,-173.7 357.03,-481.76 143.04,-418.4z"/>
   <path class="fil11" d="M7771.77 12833.98c-108.8,34.86 -290.66,63.03 -324.02,183.32 -42.44,153.1 86.01,253.76 239.68,213.85 553.02,-143.63 348.39,-481.75 84.34,-397.17z"/>
   <path class="fil11" d="M4250.17 2376.2c391.88,52.62 515.09,-319.35 279.47,-379.83 -164.38,-42.2 -566.56,137 -279.47,379.83z"/>
   <path class="fil11" d="M6589.62 2709.74c-125.68,44.61 -224.41,51.08 -209.61,220.28 14.17,162.12 153.08,161.89 280.54,121.68 342.68,-108.1 229.95,-448.75 -70.93,-341.96z"/>
   <path class="fil11" d="M12747.23 8799.72c-104.45,175.87 -93.03,295.41 133.03,314.31 188.64,-40.64 298.1,-124.93 184.09,-319.63 -132.79,-89.93 -177.65,-45.84 -317.12,5.32z"/>
   <path class="fil11" d="M11221.69 2263.92c-286.84,78.55 -189.61,383.67 45.33,345.27 296.46,-48.46 189.84,-409.66 -45.33,-345.27z"/>
  </g>
 </g>
</svg>
