<?xml version="1.0" encoding="UTF-8"?>
<!DOCTYPE svg PUBLIC "-//W3C//DTD SVG 1.1//EN" "http://www.w3.org/Graphics/SVG/1.1/DTD/svg11.dtd">
<!-- Creator: CorelDRAW 2020 (64-Bit) -->
<svg xmlns="http://www.w3.org/2000/svg" xml:space="preserve" width="198.188mm" height="248.687mm" version="1.1" style="shape-rendering:geometricPrecision; text-rendering:geometricPrecision; image-rendering:optimizeQuality; fill-rule:evenodd; clip-rule:evenodd"
viewBox="0 0 4059.94 5094.45"
 xmlns:xlink="http://www.w3.org/1999/xlink"
 xmlns:xodm="http://www.corel.com/coreldraw/odm/2003">
 <defs>
  <style type="text/css">
   <![CDATA[
    .fil0 {fill:white}
   ]]>
  </style>
 </defs>
 <g id="Layer_x0020_1">
  <metadata id="CorelCorpID_0Corel-Layer"/>
  <g id="_1646371733840">
   <path class="fil0" d="M1953.45 3836.56c-110.97,1.15 -343.7,-112.18 -443.42,-171.51 -187,-111.27 -343.45,-285.56 -436.85,-480.62 -50.81,-106.11 25.36,-130.01 110.17,-160.36 150.49,-53.84 302.06,-106.88 451.97,-162.19l1355.97 -486.65c146.89,-52.12 305.41,-117.96 452.56,-162.45 33.53,-18.39 379.91,-147.57 426.7,-136.27 119.73,28.9 110.29,365.03 99.86,463.25 -27.9,262.59 -173.88,584.38 -360.14,764.95 -127.04,123.16 -133.06,146.35 -301.28,262.54 -230.53,159.22 -547.2,276.93 -825.4,302.09 -208.55,18.86 -324.69,5.56 -526.88,-24.76l-3.24 -8.01zm-972.25 -952.15c-4.89,-58.53 11.75,-93.85 44.81,-139.96 46.57,-14.61 231.56,-51.66 279.63,-52.33 130.15,-1.82 165.3,39.88 276.18,57.21 48.68,7.65 66.27,1.08 110.83,-13.51 36.74,-34.48 72.73,-98.17 98.58,-144.34 42.47,-75.87 102.65,-61.31 179.38,-62.61 125.42,-2.12 248.31,-75.69 344.52,-150.7l28.47 -19.31c15.93,28.11 10.73,40.56 35.33,75.72 14.11,20.17 31.15,45.49 43.3,65.81 -31.19,20.28 -1307.77,480.94 -1355.17,487.19 -43.2,-25.64 -73.43,-52.91 -85.86,-103.17zm1489.11 -404.42c-34.83,-47.48 -72.52,-92.59 -66.23,-157.47 107.27,-61.33 249.62,-70.98 360.55,-20.83 36.55,16.52 92.83,23.99 114.02,35.12 -33.86,19.65 -378.04,142.86 -408.34,143.18zm86.43 -494.38c-33.31,26.29 -360.28,133.9 -431.01,159.98l-883.08 316.4c-72.25,24.8 -146.41,51.7 -218.03,78.25 -64.37,23.86 -174.58,77.99 -224.98,7.01 -24.22,-34.11 -29.68,-79.5 -18.74,-120.64 15.78,-59.37 26.47,-55.08 78.47,-73.39l659.08 -236.93c144.32,-53.26 311.61,-118.89 466.35,-132.26 197.3,-17.05 374.8,-23.2 571.94,1.58zm540.63 275.36l-79.85 26.79c21.09,-35.82 80.96,-67.54 109.14,-116.71 27.47,-47.94 54.34,-92.94 98.31,-125.55 40.95,-30.37 118.33,-43.65 168.23,-56.22 63.25,-15.94 119.35,-43.07 174.55,-56.92 23.24,-18.67 58.23,-32.59 84.63,-52.16 41.08,-30.45 43.05,-36.21 75.98,-68.1 87.15,-2.44 125.32,109.32 93.91,186.11l-724.91 262.76zm-1588.36 -330.21c-23.72,21.23 -465.66,171.1 -557.8,203.92 -125.23,44.59 -195.79,98.86 -234.19,29.37 -44.23,-45.31 -57.22,-129.8 -17.02,-180.64 320.8,163.26 377.98,-124.12 634.85,-102.47 85.06,7.17 164.2,18.85 250.87,25.54l-76.71 24.3zm367.69 550.51c-63.09,20.06 -94.88,23.89 -128.96,86.16 -102.04,239.85 -169.26,113.88 -346.57,85.23 -88.31,-14.27 -161.85,-3.81 -246.28,17.74 -61.09,15.59 -181.69,54.06 -210.92,-22.7l0.87 -28.29c52.63,-29.79 244.74,-90.72 312.47,-113.96 318.76,-109.41 634.58,-232.82 956.99,-343.57 104.1,-35.76 210.49,-74.36 313.72,-112.68 300.98,-111.73 158.12,-46.07 366.82,-67.37 56.03,-5.72 114.66,-21.09 157.73,-58.26 67.89,-58.6 10.23,-65.43 113.51,-103.39 99.27,-36.48 222.1,-86.94 321.83,-114.52l198.11 -73.53 42.14 30.79c7.07,87.81 -101.12,184.01 -144.57,206.26 -226.71,116.1 -356.42,44.78 -470.57,230.44 -42.2,68.64 -86.08,135.97 -178.06,176.47 -64.34,28.33 -188.82,-47.14 -270.26,-54.78 -82,-7.69 -223.61,21.77 -296.38,58.93 -69.88,35.69 -135.28,99.14 -204.85,141.54 -135.92,82.83 -139.68,56.39 -286.77,59.48zm1303.2 -718.11c22.31,-51.02 164.83,-212.24 206.39,-243.26 181.77,-135.64 115.9,-71.88 215.6,-130.85 28.08,-16.61 25.38,-33.71 42.3,-59.97 79.09,28.53 131.74,73.46 114.84,167.51 -8.85,49.22 -14.53,67.1 -59.94,83.52 -80.46,29.08 -484.84,178.9 -519.19,183.05zm-523.68 164.46c-173.37,-8 -369.3,-13.05 -542.29,-6.92 -197.22,6.98 -289.01,31.08 -469.26,97.91 -103.74,38.46 -779.24,291.23 -829.64,288.07l-21.83 -49.03c9.32,-26.4 504.3,-193.73 564.74,-215.13 189.49,-67.07 1693.27,-618.05 1742.29,-620.88 21.19,-21.76 352.69,-134.09 409.75,-153.6 35.63,-12.18 78.8,-26.23 80.75,28.71 2.52,71.02 -102.46,44.75 -243.56,184.28 -91.07,90.06 -188.65,190.01 -261.39,302.34 -102.5,158.28 -145.58,149.88 -429.56,144.25zm448.88 -568.2l-148.84 52.68 -1192.12 431.43c3.19,-18.51 18.13,-36.34 32.88,-48.84 19.63,-42.95 111.81,-138.69 153.74,-163.57 105.69,-62.72 125.78,-57.11 246.07,-65.91 214.6,-15.7 297.28,-33.38 469.01,-158.6 70.26,-51.23 122.96,7.54 276.77,-26.83 88.49,-19.78 115.17,-78.4 165.17,-145.14 43.32,-57.83 126.59,-84.53 191.04,-119.86 33.36,-18.28 74.65,-34.14 105.94,-53.17 32.77,-19.93 56.46,-53.03 83.59,-69.29 46.96,40.58 79.04,76.94 72.63,146.18 -13.22,70.07 -25.43,68.47 -83.47,90.07 -40.57,15.1 -80.77,29.2 -121.72,44.22 -72.92,26.75 -177.69,69.85 -250.69,86.62zm91.99 -262.89c-117.9,65.34 -138.66,105.31 -219.82,202.45 -71.21,85.23 -247.97,-0.85 -344.62,60.15 -93.36,58.92 -173.78,112.31 -284.42,134.74 -291.74,59.14 -356.63,-56.23 -584.39,253.82 -85.95,117.01 -185.32,99.76 -320.81,84.13 -171.74,-19.81 -184.92,-28.91 -336.13,53.76 -74.57,40.77 -234.97,142.77 -309.65,69.44l2399.85 -858.48zm-1083.17 273.99c-48.39,27.38 -199.49,72.12 -263.04,95.52 -128.71,47.38 -1153.44,423.47 -1202.58,424.48 -70.04,1.44 -77.3,-33.34 -90.75,-90.75 -135.11,-576.75 207.78,-1131.86 677.3,-1426.64 352.18,-221.11 719.25,-316.95 1139.2,-291.67 351.67,25.25 728.78,183.99 949.56,462.08 292.32,368.2 117.28,348.2 -174.78,457.37 -113.55,42.44 -230.8,85.1 -345.57,124.08 -136.71,46.43 -599.69,224.7 -689.33,245.53zm1507.34 -356.28l-90.06 -93.56c40.45,-76.9 31.19,-128.74 -3.07,-204.36 -384.45,-748.32 -1368.61,-873.76 -2083.84,-545.44 -331.89,152.35 -603.82,374.93 -796.47,684.59 -164.13,263.81 -243.35,588.22 -188.24,897.18 7.41,41.56 20.92,111.8 39.84,148.16 31.72,60.96 74.53,55.44 105.26,83.62 -22.7,144.12 -13.12,195.87 101.49,288.5 10.19,66.92 27.17,50.74 3.63,111.48 -16.94,43.71 -23.29,90.88 -14.69,137.28 17.7,95.45 79.76,129.55 164.04,154.17 29.55,49.61 13.52,41.83 61.1,82.62 -10.35,65.16 -42.2,86 -16.4,168.49 20.31,64.94 46.44,78.28 89.75,119.71 -20.13,104.42 -60.4,79.7 57.57,282.39 138.27,237.58 371.77,418.89 625.87,522.97 1134.64,464.77 2532.67,-486.52 2369.92,-1589.53 -33.32,-225.84 -71.69,-191.12 -134.99,-257.49 12.17,-136.17 -6.08,-170.68 -108.34,-254.87 3.65,-32.61 13.34,-45.27 6.67,-82.44 -9.55,-53.26 -19.09,-19.54 6.73,-70.56 51.35,-101.47 35.01,-231.51 -61.77,-300.13 -63.77,-45.21 -68.36,-15.09 -122.84,-87.23 4.86,-39.62 17.05,-55.56 14.78,-101.33 -2.1,-42.23 -20.82,-59.95 -25.95,-94.19z"/>
   <path class="fil0" d="M2713.5 4791.36c20.31,-10.35 118.89,-10.78 139.45,2.04 34.83,21.72 33.41,80.21 -7.34,95.25 -21.62,7.98 -115.53,7.92 -136.02,-2.4 -36.59,-18.44 -38.25,-73.4 3.91,-94.89zm-1310.72 3.08c40.35,-22.55 589.35,-9.35 683.42,-9.35l520.45 0.97c55.84,9.08 63.04,83.26 14.57,102.3l-1204.65 3.56c-47.68,-8.76 -63.72,-69.57 -13.78,-97.48zm-782.1 -4402.45c-54.56,-32.62 -164.7,-185.02 -219.03,-107.29 -52.95,75.77 122.55,149.24 146.72,202.82 -3.26,7.3 -209.27,300.59 -300.78,495.04 -301.11,639.86 -338.5,1292.31 -51.81,1951.56 226.96,521.9 689.35,957.84 1218,1166.59 155.18,61.28 306.28,102.94 470.22,129.69 49.61,8.09 137.39,12.15 178.08,24.06l2.85 333.43c-100.22,0 -513.99,-5.7 -578.5,3.69 -172.87,25.18 -253.25,155.59 -274.76,316.94 -79.01,5.92 -320.23,-35.88 -275.37,117.91 19.77,67.8 78.75,65.81 138.29,65.69l2052.15 -0.01c56.27,0 142.38,13.99 184.9,-26.43 41.69,-39.62 37.36,-106.73 -12.48,-140.56 -38.93,-26.42 -143.94,-12.87 -193.95,-16.61 -62.62,-443.66 -444.57,-296.97 -877.2,-321.44l-2.71 -325.56c61.95,-10.27 161.91,-6.21 231.45,-13.04 76.01,-7.46 147.5,-18.35 222.42,-32.16 360.35,-66.42 762.92,-248.35 1055.96,-461.45 55.06,43.45 143.77,222.75 214.71,178.72 57.4,-35.63 6.06,-91.74 -22.69,-127.84 -30.96,-38.88 -67.29,-77.07 -95.73,-116.94 33.79,-40.47 172.6,-101.6 112.05,-166.67 -51.42,-55.26 -136.51,40.33 -184.5,76.09 -115.09,85.76 -241.47,172.54 -368.83,238.2 -306.23,157.87 -574.73,261.54 -922.25,297.88 -1408.67,147.3 -2565.7,-1088.62 -2321.62,-2480.05 53.81,-306.77 177.07,-615.2 343.38,-877.4 83.41,-131.5 163.49,-230.57 254.94,-351.93 19.77,-26.24 47.77,-56.76 69.6,-82.29 28.83,-33.7 16.82,-87.32 -29.49,-93.82 -67.25,-9.44 -115.65,112.53 -164,143.19z"/>
  </g>
 </g>
</svg>
