<?xml version="1.0" encoding="UTF-8"?>
<!DOCTYPE svg PUBLIC "-//W3C//DTD SVG 1.1//EN" "http://www.w3.org/Graphics/SVG/1.1/DTD/svg11.dtd">
<!-- Creator: CorelDRAW 2020 (64-Bit) -->
<svg xmlns="http://www.w3.org/2000/svg" xml:space="preserve" width="198.188mm" height="248.687mm" version="1.1" style="shape-rendering:geometricPrecision; text-rendering:geometricPrecision; image-rendering:optimizeQuality; fill-rule:evenodd; clip-rule:evenodd"
viewBox="0 0 547463.07 686961.14"
 xmlns:xlink="http://www.w3.org/1999/xlink"
 xmlns:xodm="http://www.corel.com/coreldraw/odm/2003">
 <defs>
  <style type="text/css">
   <![CDATA[
    .fil0 {fill:white}
   ]]>
  </style>
 </defs>
 <g id="Layer_x0020_1">
  <metadata id="CorelCorpID_0Corel-Layer"/>
  <g id="_1646371759472">
   <path class="fil0" d="M263412.36 517340.2c-14963.09,154.97 -46346.69,-15126.62 -59793.53,-23127.77 -25216.38,-15004.53 -46311.89,-38506.59 -58907.37,-64809.68 -6851.73,-14308.69 3419.79,-17531.8 14855.36,-21623.12 20292.77,-7260.01 40730.84,-14412.28 60946.54,-21871.18l182845.41 -65622.92c19807.98,-7027.69 41183.59,-15905.88 61025.54,-21905.7 4521.69,-2479.48 51229.42,-19899.13 57538.07,-18375.98 16145.1,3897.67 14872.21,49222.85 13465.35,62466.66 -3761.77,35409.17 -23446.27,78800.98 -48562.93,103149.98 -17131.26,16608.07 -17942.01,19734.22 -40626.14,35402.27 -31085.54,21470.36 -73786.76,37342.54 -111301.4,40735.53 -28121.54,2543.29 -43783.23,749.98 -71047.34,-3338.3l-437.56 -1079.8zm-131103.02 -128392.61c-659.1,-7892.86 1584.21,-12655.43 6041.81,-18873.2 6279.1,-1969.83 31224.21,-6965.82 37706.89,-7056.14 17549.48,-244.74 22290.22,5377.47 37240.89,7714.69 6563.62,1030.91 8935.92,145.58 14945.41,-1821.77 4954,-4649.31 9807.17,-13237.73 13292.7,-19464.06 5726.63,-10230.08 13842.13,-8267.43 24188.23,-8442.29 16912.76,-285.9 33483.54,-10206.33 46456.91,-20320.95l3838.56 -2603.51c2148,3791.05 1446.92,5469.18 4764.5,10209.92 1903.26,2719.81 4200.43,6133.52 5839.05,8874.05 -4205.95,2735 -176345.61,64852.78 -182737.68,65695.02 -5824.69,-3457.91 -9901.92,-7134.87 -11577.28,-13911.74zm200799.58 -54533.47c-4697.1,-6402.02 -9778.99,-12484.99 -8931.23,-21234.45 14465.32,-8270.47 33660.05,-9570.99 48618.73,-2808.76 4928.58,2228.11 12517.59,3235.54 15375.24,4735.77 -4566.16,2649.09 -50976.94,19264.35 -55062.73,19307.44zm11654.63 -66664.6c-4492.13,3545.48 -48581.43,18055.27 -58119.55,21573.12l-119078.24 42664.76c-9742.25,3343.55 -19743.06,6971.89 -29399.68,10551.34 -8679.3,3217.03 -23541.29,10517.09 -30338.05,945.28 -3265.65,-4599.04 -4002.09,-10720.4 -2527.55,-16268.03 2127.84,-8005.29 3568.96,-7426.85 10581.18,-9896.12l88873.61 -31948.78c19460.75,-7182.11 42018.92,-16031.29 62885.43,-17834.83 26605.29,-2299.66 50539.39,-3128.64 77122.85,213.25zm72901.16 37130.39l-10767.36 3613.15c2843.29,-4830.24 10917.63,-9106.91 14717.24,-15738.21 3704.31,-6465 7327.41,-12531.95 13256.79,-16929.61 5521.38,-4095.18 15956.71,-5885.74 22685.24,-7581.27 8529.03,-2149.11 16093.45,-5808.39 23537.15,-7675.46 3134.44,-2517.33 7852.53,-4394.9 11412.37,-7033.77 5539.89,-4106.51 5805.63,-4883 10245.83,-9183.15 11751.59,-329 16899.22,14741.55 12662.88,25096.49l-97750.14 35431.82zm-214182.61 -44526.58c-3198.52,2862.62 -62791.51,23072.52 -75216.56,27496.98 -16885.96,6012.81 -26400.88,13330.27 -31580,3959.83 -5964.46,-6110.32 -7716.07,-17502.52 -2294.41,-24358.95 43258.11,22014.54 50968.38,-16737.63 85606.58,-13817.82 11469.55,966.82 22142.16,2541.91 33828,3443.54l-10343.62 3276.42zm49581.13 74233.44c-8507.76,2704.62 -12793.54,3222 -17390.09,11617.61 -13759.81,32343.24 -22823.63,15355.62 -46732.87,11492.48 -11908.21,-1924.25 -21825.04,-513.8 -33209.51,2392.47 -8237.33,2102.7 -24499.55,7289.56 -28441.42,-3060.68l117.12 -3814.8c7096.75,-4016.73 33001.51,-12232.51 42135.49,-15367.5 42982.7,-14753.15 85569.84,-31394.93 129045.9,-46328.19 14036.88,-4821.4 28382.86,-10026.5 42303.17,-15193.75 40586.09,-15065.85 21322.3,-6211.69 49463.45,-9084.26 7554.75,-771.25 15461.97,-2843.84 21268.71,-7856.12 9155.25,-7902.53 1379.79,-8822.94 15306.18,-13941.3 13385.52,-4919.74 29949.11,-11723.41 43396.5,-15442.08l26714.68 -9914.9 5682.43 4152.36c952.73,11840.26 -13636.06,24813.35 -19493.9,27813.26 -30571.19,15655.06 -48062.11,6038.22 -63454.47,31073.11 -5690.44,9255.25 -11606.84,18334.54 -24010.06,23796.26 -8675.43,3820.33 -25461.95,-6356.99 -36443.12,-7386.52 -11057.96,-1036.71 -30152.7,2935 -39965.67,7946.17 -9422.93,4812.01 -18241.72,13368.66 -27623.49,19085.62 -18328.74,11168.73 -18834.53,7603.92 -38669.02,8020.76zm175729.88 -96833.6c3007.92,-6880.46 22226.41,-28619.59 27831.22,-32802.07 24511.15,-18290.07 15629.1,-9692.53 29072.34,-17645.06 3785.8,-2239.71 3422.55,-4545.72 5704.53,-8086.22 10665.15,3846.57 17764.67,9905.51 15485.45,22588.28 -1192.78,6636.54 -1958.78,9048.35 -8083.19,11261.82 -10849.95,3921.15 -65377.62,24124.15 -70010.36,24683.25zm-70615.04 22176.14c-23377.48,-1078.42 -49798.25,-1759.34 -73124.91,-933.4 -26594.24,941.41 -38970.95,4190.76 -63277.41,13202.65 -13988.54,5186.59 -105077,39271.49 -111872.93,38845.26l-2943.28 -6611.96c1256.87,-3560.12 68002.68,-26124.09 76152.99,-29009.09 25551.45,-9044.48 228329.42,-83340.9 234939.17,-83722.93 2856.82,-2933.61 47559.09,-18080.96 55252.23,-20711.82 4804,-1642.77 10625.65,-3536.91 10888.08,3871.98 339.49,9577.06 -13816.72,6033.8 -32843.23,24849.26 -12280.58,12144.39 -25437.92,25621.62 -35247.02,40769.23 -13821.69,21343.84 -19630.91,20211 -57923.7,19450.81zm60528.59 -76618.45l-20070.12 7104.21 -160751.04 58175.9c430.1,-2496.06 2444.68,-4900.13 4433.57,-6585.72 2646.61,-5791.26 15076.35,-18701.1 20730.88,-22056.53 14252.06,-8457.48 16961.38,-7701.15 33181.89,-8887.86 28937.54,-2117.34 40086.66,-4501.52 63243.43,-21386.11 9474.31,-6907.81 16580.17,1016.82 37320.72,-3618.12 11932.52,-2666.77 15530.48,-10572.06 22272.27,-19571.8 5842.09,-7798.66 17070.49,-11399.11 25761.12,-16162.5 4498.76,-2465.4 10066.83,-4603.73 14285.76,-7169.68 4418.65,-2687.77 7613.86,-7151.17 11271.49,-9342.82 6332.13,5471.94 10658.52,10375.11 9793.36,19711.29 -1782.82,9448.34 -3428.9,9232.6 -11255.74,12145.5 -5470.56,2036.13 -10891.67,3937.73 -16413.6,5963.36 -9832.58,3606.8 -23960.34,9418.78 -33803.97,11680.87zm12403.78 -35448.95c-15897.87,8810.24 -18697.79,14200.96 -29641.39,27298.92 -9602.48,11493.03 -33437.68,-114.91 -46470.17,8110.26 -12589.13,7945.62 -23433.56,15144.58 -38353.01,18168.8 -39339.17,7974.63 -48089.46,-7582.65 -78802.09,34225.78 -11590.54,15777.71 -24989.32,13452.36 -43259.77,11344.69 -23158.43,-2671.47 -24936,-3898.23 -45326.01,7249.23 -10056.06,5497.63 -31684.14,19252.19 -41755.12,9364.09l323607.54 -115761.76zm-146060.31 36945.87c-6524.94,3691.6 -26900.58,9725.13 -35469.94,12879.73 -17355.29,6389.31 -155535.45,57102.18 -162162.32,57238.91 -9444.2,194.75 -10423.72,-4495.45 -12237.48,-12237.76 -18218.8,-77772.01 28018.23,-152625.31 91329.89,-192375.52 47489.2,-29816.24 96986.91,-42738.79 153615.89,-39329.77 47421.25,3404.32 98271.95,24810.31 128044,62309.76 39417.89,49649.36 15815.28,46953.31 -23568.09,61673.86 -15311.42,5723.03 -31121.73,11475.07 -46598.9,16731.82 -18433.98,6260.59 -80865.28,30299.38 -92953.05,33108.96zm203256.96 -48042.22l-12144.67 -12616.48c5454.53,-10369.03 4206.23,-17359.98 -413.52,-27557.47 -51841.56,-100906.96 -184549.78,-117822.48 -280995.27,-73549.76 -44754.2,20543.87 -81422.17,50557.62 -107400.41,92313.29 -22132.49,35574.08 -32814.77,79318.37 -25383.78,120980.39 999.69,5604.25 2820.91,15075.52 5372.22,19978.14 4277.77,8220.2 10049.43,7476.3 14194.33,11275.63 -3060.68,19433.95 -1768.73,26411.92 13686.06,38902.16 1373.72,9023.77 3663.43,6841.79 488.94,15032.15 -2284.46,5893.47 -3140.79,12254.33 -1980.33,18511.33 2386.95,12871.44 10754.93,17469.65 22119.51,20788.61 3984.41,6689.58 1823.7,5640.44 8238.98,11140.55 -1395.54,8787.03 -5690.44,11596.62 -2211.54,22719.77 2738.59,8756.92 6262.8,10556.04 12102.96,16141.79 -2714.28,14080.8 -8144.23,10746.92 7762.48,38078.43 18644.75,32036.34 50131.39,56484.79 84395.01,70520.01 153000.72,62672.45 341517.51,-65604.13 319572.03,-214340.34 -4493.24,-30453.24 -9667.67,-25771.06 -18202.78,-34721.62 1641.66,-18361.61 -819.59,-23015.06 -14609.51,-34367.77 492.8,-4397.94 1798.57,-6104.52 899.97,-11116.52 -1287.25,-7181.83 -2573.68,-2635 907.98,-9514.36 6924.66,-13682.74 4720.85,-31218.14 -8329.31,-40470.9 -8598.64,-6096.23 -9218.51,-2034.19 -16564.15,-11763.19 654.95,-5342.11 2299.66,-7491.49 1993.59,-13663.41 -282.59,-5695.14 -2807.38,-8084.29 -3498.79,-12700.45z"/>
   <path class="fil0" d="M365902.42 646091.08c2738.87,-1396.09 16031.57,-1453.55 18803.59,275.13 4697.1,2928.64 4504.84,10816.53 -989.47,12844.09 -2915.66,1075.93 -15579.1,1067.65 -18341.17,-324.3 -4934.38,-2486.67 -5157.86,-9897.22 527.06,-12794.92zm-176743.66 415.18c5441.28,-3040.79 79470.85,-1261.29 92156.39,-1261.29l70179.69 131.21c7529.33,1224.83 8500.3,11227.02 1964.31,13795.17l-162441.6 479.82c-6429.64,-1180.63 -8592.56,-9381.49 -1858.78,-13144.91zm-105462.62 -593647.89c-7357.79,-4398.76 -22209.56,-24948.43 -29535.59,-14466.97 -7140.67,10216.55 16524.65,20123.99 19785.05,27348.64 -439.77,984.5 -28219.61,40532.78 -40558.47,66753.27 -40603.22,86282.25 -45644.78,174260.86 -6985.7,263158.23 30604.62,70376.09 92955.81,129159.43 164240.72,157309.15 20925.07,8263.01 41300.99,13880.53 63407.24,17487.6 6689.58,1091.4 18525.69,1638.9 24013.38,3243.83l384.52 44961.38c-13514.52,0 -69308.72,-769.04 -78008.46,498.05 -23310.08,3395.48 -34149.82,20980.32 -37050.56,42737.13 -10653.83,798.87 -43181.59,-4838.25 -37132.6,15900.08 2666.5,9141.99 10619.02,8874.05 18647.24,8857.75l276722.19 -1.1c7587.34,0 19198.88,1886.13 24933.24,-3564.26 5621.1,-5342.38 5038.25,-14392.12 -1683.38,-18953.31 -5250.12,-3562.33 -19410.2,-1735.31 -26153.65,-2239.16 -8444.23,-59824.75 -59947.67,-40044.39 -118286.28,-43345.12l-364.91 -43899.8c8353.62,-1385.04 21832.78,-837.54 31209.3,-1758.24 10249.14,-1006.32 19890.02,-2474.24 29992.76,-4336.34 48591.93,-8956.09 102876.51,-33488.23 142390.81,-62223.85 7424.92,5858.94 19386.72,30036.68 28952.18,24099.01 7740.38,-4804.83 816.83,-12370.9 -3059.85,-17238.99 -4174.46,-5242.11 -9073.76,-10392.79 -12909.01,-15769.42 4556.22,-5457.02 23274.45,-13700.15 15109.5,-22475.02 -6933.5,-7451.71 -18408.29,5438.51 -24879.1,10260.19 -15519.98,11564.85 -32561.47,23266.44 -49735.54,32120.04 -41293.53,21288.04 -77499.09,35267.74 -124360.68,40167.59 -189951.83,19862.12 -345972.07,-146794.55 -313058.68,-334421.86 7256.41,-41366.18 23877.19,-82956.38 46302.5,-118313.62 11246.9,-17732.62 22045.48,-31090.79 34377.43,-47455.5 2666.22,-3538.29 6440.97,-7653.92 9385.63,-11096.63 3887.18,-4544.62 2267.89,-11774.51 -3977.23,-12651.01 -9067.69,-1272.61 -15594.57,15174.69 -22113.99,19308.27z"/>
   <g>
    <path class="fil0" d="M181787.16 116936.59c-6292.91,1681.99 -14825.8,5066.98 -21059.32,7461.66 -10813.22,4154.3 -5911.98,14852.87 2776.71,12596.04 5929.93,-1540.29 14912.27,-5154.82 20907.94,-7376.85 10263.51,-3804.03 6092.91,-15011.43 -2625.34,-12680.84z"/>
    <path class="fil0" d="M479836.06 385013.46c-4402.36,3997.4 -19567.38,4839.91 -21884.43,10422.34 -1796.36,4327.77 836.99,9050.84 5599.01,9238.12 2685.56,105.52 9657.45,-2992.45 12755.15,-3978.06 8130.15,-3298.8 17895.33,-3105.43 16215.27,-13284.14 -4599.04,-6024.96 -6730.46,-2718.15 -12684.98,-2398.27z"/>
    <path class="fil0" d="M387519.74 464881.81c-5817.23,2087.23 -15983.78,4810.63 -21107.39,7461.66 -7129.62,3688.56 -4954.27,15345.95 6426.33,11354.36 6020.54,-2111.82 15206.18,-4958.69 20691.65,-7552.81 7906.12,-3738.29 5092.39,-15247.34 -6010.6,-11263.2z"/>
    <path class="fil0" d="M381510.52 374182.29c-6964.71,2278.39 -14240.19,4857.04 -21099.65,7413.04 -8985.37,3348.52 -5128.02,15233.53 5115.59,11957.66 6459.75,-2065.96 14387.14,-5008.42 20774.52,-7480.72 8687.86,-3362.61 5000.68,-15092.92 -4790.47,-11889.98z"/>
    <path class="fil0" d="M261896.66 32260.09c-3441.33,887.82 -15469.98,4892.4 -18341.72,6420.53 -6669.14,3548.79 -4622.52,13748.21 4238.27,12053.23 3327.8,-636.45 14338.53,-4913.39 17993.39,-6373.84 8091.75,-3233.05 3968.67,-14127.48 -3889.94,-12099.92z"/>
    <path class="fil0" d="M226490.25 420590.03c-6652.57,-3684.15 -10775.37,-159.11 -17742.57,2250.76 -5032.45,1740.83 -16641.77,4901.51 -9980.37,12876.69 3928.61,4703.73 12958.46,-279.27 17818.26,-2079.5 7673.53,-2842.73 13559.82,-3034.16 9904.68,-13047.96z"/>
    <path class="fil0" d="M357396.04 42582.99c-4233.02,2259.05 -20135.59,5063.94 -13273.36,13900.97 3853.75,4962.56 18013.55,-670.97 22394.36,-3644.64 3513.98,-1939.45 5612.82,-5079.96 3055.99,-9019.9 -3186.37,-4909.25 -7758.89,-2341.92 -12176.99,-1236.43z"/>
    <path class="fil0" d="M301979.73 144382.74c8084.29,3124.22 34630.19,-6522.73 24111.72,-15251.21 -4225.57,-3506.53 -12772.55,927.6 -17621.85,2707.93 -6952,2552.41 -10952.99,4458.43 -6489.86,12543.27z"/>
    <path class="fil0" d="M198654.06 180711.5c-2906.82,18538.12 25999.78,2456 26964.39,-242.53 5569.45,-15576.61 -22130.01,-5330.78 -26964.39,242.53z"/>
    <path class="fil0" d="M112583.41 187102.75c-3194.93,1001.35 -12103.23,3547.41 -13725.01,6055.9 -3918.12,6059.49 1236.98,11603.8 8493.95,9461.87 25124.67,-7415.25 12760.12,-17877.65 5231.06,-15517.77z"/>
    <path class="fil0" d="M302691.86 413205.44c-3214.27,951.63 -11972.02,3428.08 -13718.38,6087.94 -3514.26,5353.16 1180.63,11439.44 8418.54,9414.09 22999.6,-6435.72 13228.06,-17849.47 5299.84,-15502.03z"/>
    <path class="fil0" d="M287948.1 475505.81c-4031.1,1291.4 -10769.29,2335.29 -12005.17,6792.06 -1572.61,5672.48 3186.65,9401.93 8880.4,7923.25 20489.72,-5321.67 12908.18,-17848.92 3124.77,-14715.31z"/>
    <path class="fil0" d="M157471.03 88039.38c14519.46,1949.67 19084.24,-11831.97 10354.39,-14072.79 -6090.43,-1563.49 -20991.37,5076.09 -10354.39,14072.79z"/>
    <path class="fil0" d="M244149.12 100397.3c-4656.49,1652.71 -8314.39,1892.49 -7766.34,8161.36 525.12,6006.73 5671.66,5998.16 10394.17,4508.43 12696.31,-4005.13 8519.91,-16626.3 -2627.82,-12669.79z"/>
    <path class="fil0" d="M472291.81 326034.27c-3869.77,6516.11 -3446.86,10944.98 4928.86,11645.51 6989.3,-1505.76 11044.7,-4628.59 6820.52,-11842.47 -4920.02,-3331.95 -6582.13,-1698.57 -11749.38,196.96z"/>
    <path class="fil0" d="M415769.73 83879.56c-10627.59,2910.13 -7025.21,14215.32 1679.51,12792.44 10983.93,-1795.53 7033.77,-15178.28 -1679.51,-12792.44z"/>
   </g>
  </g>
 </g>
</svg>
