<?xml version="1.0" encoding="UTF-8"?>
<!DOCTYPE svg PUBLIC "-//W3C//DTD SVG 1.1//EN" "http://www.w3.org/Graphics/SVG/1.1/DTD/svg11.dtd">
<!-- Creator: CorelDRAW 2020 (64-Bit) -->
<svg xmlns="http://www.w3.org/2000/svg" xml:space="preserve" width="176.604mm" height="193.93mm" version="1.1" style="shape-rendering:geometricPrecision; text-rendering:geometricPrecision; image-rendering:optimizeQuality; fill-rule:evenodd; clip-rule:evenodd"
viewBox="0 0 7124.55 7823.54"
 xmlns:xlink="http://www.w3.org/1999/xlink"
 xmlns:xodm="http://www.corel.com/coreldraw/odm/2003">
 <defs>
  <style type="text/css">
   <![CDATA[
    .fil0 {fill:white}
   ]]>
  </style>
 </defs>
 <g id="Layer_x0020_1">
  <metadata id="CorelCorpID_0Corel-Layer"/>
  <path class="fil0" d="M2976.21 7555.36c-218.52,2.26 -676.86,-220.91 -873.24,-337.76 -368.27,-219.13 -676.35,-562.36 -860.3,-946.5 -100.06,-208.97 49.94,-256.04 216.95,-315.79 296.36,-106.03 594.84,-210.48 890.08,-319.41l2670.32 -958.37c289.28,-102.63 601.46,-232.29 891.23,-319.92 66.04,-36.21 748.17,-290.61 840.3,-268.37 235.79,56.92 217.2,718.86 196.65,912.28 -54.94,517.12 -342.41,1150.83 -709.22,1506.43 -250.19,242.55 -262.03,288.2 -593.31,517.02 -453.98,313.56 -1077.6,545.36 -1625.47,594.91 -410.69,37.14 -639.42,10.95 -1037.59,-48.75l-6.39 -15.77zm-1914.66 -1875.08c-9.63,-115.27 23.14,-184.82 88.24,-275.63 91.7,-28.77 456.01,-101.73 550.68,-103.05 256.3,-3.57 325.53,78.53 543.87,112.67 95.86,15.06 130.5,2.13 218.27,-26.61 72.35,-67.9 143.23,-193.33 194.13,-284.26 83.63,-149.4 202.15,-120.74 353.25,-123.29 247,-4.18 489,-149.06 678.47,-296.77l56.06 -38.02c31.37,55.37 21.13,79.87 69.58,149.11 27.8,39.72 61.34,89.58 85.27,129.6 -61.42,39.94 -2575.39,947.13 -2668.75,959.43 -85.07,-50.5 -144.61,-104.2 -169.08,-203.17zm2932.53 -796.42c-68.6,-93.5 -142.81,-182.33 -130.43,-310.11 211.26,-120.78 491.58,-139.78 710.04,-41.02 71.98,32.54 182.81,47.25 224.54,69.16 -66.69,38.69 -744.48,281.34 -804.15,281.97zm170.21 -973.59c-65.6,51.78 -709.5,263.68 -848.79,315.06l-1739.05 623.09c-142.28,48.83 -288.33,101.82 -429.36,154.09 -126.75,46.98 -343.8,153.59 -443.06,13.81 -47.69,-67.17 -58.45,-156.56 -36.91,-237.58 31.08,-116.91 52.12,-108.46 154.53,-144.53l1297.93 -466.59c284.21,-104.89 613.65,-234.12 918.39,-260.46 388.55,-33.58 738.09,-45.69 1126.32,3.11zm1064.67 542.26l-157.25 52.77c41.52,-70.54 159.44,-133 214.93,-229.84 54.1,-94.42 107.01,-183.02 193.61,-247.24 80.64,-59.81 233.04,-85.96 331.3,-110.72 124.56,-31.39 235.03,-84.83 343.74,-112.09 45.78,-36.76 114.68,-64.18 166.67,-102.72 80.91,-59.97 84.79,-71.31 149.63,-134.11 171.62,-4.8 246.8,215.29 184.93,366.52l-1427.57 517.45zm-3127.97 -650.28c-46.71,41.81 -917.02,336.96 -1098.48,401.57 -246.61,87.81 -385.56,194.68 -461.2,57.83 -87.11,-89.24 -112.69,-255.61 -33.51,-355.74 631.75,321.51 744.35,-244.44 1250.22,-201.8 167.5,14.12 323.37,37.12 494.03,50.29l-151.06 47.85zm724.09 1084.12c-124.25,39.5 -186.84,47.05 -253.97,169.67 -200.95,472.35 -333.32,224.26 -682.5,167.84 -173.91,-28.1 -318.74,-7.5 -485,34.94 -120.3,30.71 -357.8,106.46 -415.37,-44.7l1.71 -55.71c103.64,-58.66 481.96,-178.65 615.36,-224.43 627.73,-215.46 1249.68,-458.5 1884.62,-676.59 205,-70.41 414.51,-146.43 617.81,-221.89 592.73,-220.03 311.4,-90.72 722.38,-132.67 110.33,-11.26 225.81,-41.53 310.61,-114.73 133.71,-115.41 20.15,-128.85 223.54,-203.6 195.49,-71.85 437.38,-171.21 633.77,-225.52l390.15 -144.8 82.99 60.64c13.91,172.92 -199.14,362.38 -284.69,406.19 -446.47,228.63 -701.91,88.18 -926.7,453.8 -83.1,135.17 -169.51,267.76 -350.65,347.53 -126.7,55.79 -371.85,-92.84 -532.22,-107.87 -161.49,-15.14 -440.36,42.86 -583.67,116.05 -137.61,70.28 -266.41,195.24 -403.42,278.73 -267.68,163.11 -275.06,111.05 -564.73,117.14zm2566.4 -1414.18c43.93,-100.48 324.6,-417.97 406.45,-479.05 357.97,-267.11 228.25,-141.55 424.58,-257.69 55.29,-32.71 49.98,-66.39 83.31,-118.09 155.76,56.18 259.44,144.66 226.15,329.88 -17.42,96.92 -28.61,132.14 -118.05,164.47 -158.46,57.27 -954.79,352.31 -1022.45,360.48zm-1031.28 323.87c-341.41,-15.75 -727.27,-25.69 -1067.93,-13.63 -388.39,13.75 -569.14,61.2 -924.12,192.81 -204.29,75.75 -1534.57,573.53 -1633.82,567.31l-42.98 -96.56c18.36,-51.99 993.13,-381.52 1112.16,-423.66 373.16,-132.09 3334.58,-1217.13 3431.11,-1222.71 41.72,-42.84 694.56,-264.06 806.92,-302.48 70.16,-23.99 155.18,-51.65 159.01,56.55 4.96,139.87 -201.78,88.12 -479.65,362.9 -179.35,177.36 -371.5,374.18 -514.76,595.4 -201.86,311.71 -286.69,295.17 -845.93,284.06zm883.97 -1118.95l-293.11 103.75 -2347.65 849.62c6.28,-36.45 35.7,-71.56 64.75,-96.18 38.65,-84.58 220.18,-273.12 302.76,-322.12 208.14,-123.52 247.71,-112.47 484.6,-129.8 422.61,-30.92 585.44,-65.74 923.62,-312.33 138.37,-100.88 242.14,14.85 545.04,-52.84 174.27,-38.95 226.81,-154.4 325.27,-285.83 85.32,-113.89 249.3,-166.48 376.22,-236.04 65.7,-36.01 147.02,-67.23 208.63,-104.71 64.53,-39.25 111.19,-104.44 164.61,-136.44 92.48,79.91 155.66,151.52 143.02,287.87 -26.04,137.99 -50.08,134.84 -164.38,177.38 -79.89,29.74 -159.06,57.51 -239.71,87.09 -143.6,52.67 -349.92,137.55 -493.68,170.59zm181.15 -517.71c-232.18,128.67 -273.07,207.39 -432.89,398.68 -140.24,167.85 -488.33,-1.68 -678.66,118.44 -183.85,116.04 -342.23,221.18 -560.12,265.34 -574.52,116.46 -702.31,-110.74 -1150.84,499.84 -169.27,230.42 -364.95,196.46 -631.78,165.68 -338.21,-39.01 -364.17,-56.93 -661.95,105.87 -146.86,80.29 -462.72,281.16 -609.8,136.76l4726.04 -1690.61zm-2133.1 539.57c-95.29,53.91 -392.86,142.03 -518.01,188.1 -253.46,93.31 -2271.48,833.93 -2368.26,835.93 -137.93,2.84 -152.23,-65.65 -178.72,-178.72 -266.07,-1135.8 409.19,-2228.98 1333.8,-2809.5 693.54,-435.44 1416.42,-624.17 2243.44,-574.38 692.55,49.72 1435.19,362.34 1869.99,909.99 575.67,725.09 230.97,685.72 -344.19,900.7 -223.61,83.58 -454.51,167.58 -680.54,244.36 -269.21,91.43 -1180.98,442.5 -1357.51,483.53zm2968.41 -701.62l-177.36 -184.25c79.66,-151.43 61.43,-253.53 -6.04,-402.46 -757.11,-1473.67 -2695.21,-1720.71 -4103.72,-1074.14 -653.6,300.03 -1189.11,738.36 -1568.5,1348.17 -323.23,519.53 -479.23,1158.38 -370.71,1766.83 14.6,81.85 41.2,220.17 78.46,291.77 62.47,120.05 146.76,109.19 207.3,164.67 -44.7,283.82 -25.83,385.73 199.87,568.14 20.06,131.79 53.5,99.92 7.14,219.53 -33.36,86.07 -45.87,178.97 -28.92,270.34 34.86,187.98 157.07,255.13 323.04,303.6 58.19,97.7 26.63,82.37 120.32,162.7 -20.38,128.33 -83.1,169.36 -32.3,331.81 40,127.89 91.46,154.16 176.75,235.74 -39.64,205.64 -118.94,156.95 113.37,556.11 272.29,467.87 732.13,824.92 1232.53,1029.89 2234.46,915.28 4987.6,-958.1 4667.11,-3130.28 -65.62,-444.75 -141.19,-376.37 -265.84,-507.08 23.98,-268.16 -11.97,-336.12 -213.36,-501.92 7.2,-64.23 26.27,-89.15 13.14,-162.35 -18.8,-104.89 -37.59,-38.48 13.26,-138.95 101.13,-199.83 68.94,-455.92 -121.64,-591.05 -125.58,-89.03 -134.63,-29.71 -241.91,-171.79 9.57,-78.02 33.58,-109.41 29.11,-199.54 -4.13,-83.17 -41,-118.06 -51.1,-185.48z"/>
 </g>
</svg>
